<svg xmlns="http://www.w3.org/2000/svg" xmlns:xlink="http://www.w3.org/1999/xlink" width="227.501" height="214.492" viewBox="0 0 227.501 214.492">
  <defs>
    <clipPath id="clip-path">
      <rect id="Rectangle_14" data-name="Rectangle 14" width="133.774" height="121.385" rx="8.79" fill="#29b6f6" stroke="#263238" stroke-linecap="round" stroke-linejoin="round" stroke-width="1"/>
    </clipPath>
    <clipPath id="clip-path-2">
      <path id="Path_733" data-name="Path 733" d="M244.032,84.184H141.291A116.773,116.773,0,0,0,136.78,63.21H248.562a112.051,112.051,0,0,0-4.531,20.974Z" transform="translate(-136.78 -63.21)" fill="#fff" stroke="#263238" stroke-linecap="round" stroke-linejoin="round" stroke-width="1"/>
    </clipPath>
    <clipPath id="clip-path-3">
      <rect id="Rectangle_22" data-name="Rectangle 22" width="4.125" height="11.537" fill="#757575" stroke="#263238" stroke-linecap="round" stroke-linejoin="round" stroke-width="1"/>
    </clipPath>
    <clipPath id="clip-path-4">
      <rect id="Rectangle_27" data-name="Rectangle 27" width="4.125" height="11.537" transform="translate(4.125 11.537) rotate(180)" fill="#757575" stroke="#263238" stroke-linecap="round" stroke-linejoin="round" stroke-width="1"/>
    </clipPath>
    <clipPath id="clip-path-5">
      <path id="Path_789" data-name="Path 789" d="M244.032,129.4H141.291a53.841,53.841,0,0,1-4.511-20.974H248.562C248.562,118.143,244.032,129.4,244.032,129.4Z" transform="translate(-136.78 -108.43)" fill="#fff" stroke="#263238" stroke-linecap="round" stroke-linejoin="round" stroke-width="1"/>
    </clipPath>
    <clipPath id="clip-path-6">
      <rect id="Rectangle_33" data-name="Rectangle 33" width="3.062" height="21.39" fill="#757575" stroke="#263238" stroke-linecap="round" stroke-linejoin="round" stroke-width="1"/>
    </clipPath>
    <clipPath id="clip-path-8">
      <path id="Path_795" data-name="Path 795" d="M248.569,150.245v34.987a2.225,2.225,0,0,1-2.23,2.225H110.71a2.225,2.225,0,0,1-2.23-2.225V150.245a2.235,2.235,0,0,1,2.23-2.23h62.5v2.23s-10.675,9.252-29.068,12.67c2.636,11.933,17.04,21.049,34.426,21.049s31.78-9.126,34.421-21.049c-18.423-3.418-29.093-12.67-29.093-12.67V148h62.467A2.23,2.23,0,0,1,248.569,150.245Z" transform="translate(-108.48 -148)" fill="#90f" stroke="#263238" stroke-linecap="round" stroke-linejoin="round" stroke-width="1"/>
    </clipPath>
  </defs>
  <g id="Group_56" data-name="Group 56" transform="translate(-81.253 -110.808)">
    <path id="Path_633" data-name="Path 633" d="M131.324,28.267C193.47,22.754,193.6,57.806,221.6,90.478s34,47.492,23.445,85.155S198.908,242.85,154.889,226.1s-69.233-.662-97-15.536S19.8,167,40.14,133.173,54.674,35.1,131.324,28.267Z" transform="translate(53.846 83.117)" fill="#5f50ea"/>
    <g id="Typewriter-bro" transform="translate(81.755 128.609)">
      <g id="freepik--Bubbles--inject-326" transform="translate(0 72.171)">
        <path id="Path_635" data-name="Path 635" d="M426.551,319.265l-.391,3.508,6.821-7.974a24,24,0,0,0,2.456.13" transform="translate(-225.782 -260.88)" fill="none" stroke="#263238" stroke-linecap="round" stroke-linejoin="round" stroke-width="1"/>
        <path id="Path_636" data-name="Path 636" d="M408.2,275.43a10.234,10.234,0,0,0-1.639,4.511c-.647,5.829,3.924,11.342,10.83,13.893l-.351,3.132" transform="translate(-215.974 -241.241)" fill="none" stroke="#263238" stroke-linecap="round" stroke-linejoin="round" stroke-width="1"/>
        <path id="Path_637" data-name="Path 637" d="M413.923,269.64a13.956,13.956,0,0,0-1.263,1.158" transform="translate(-219.048 -238.353)" fill="none" stroke="#263238" stroke-linecap="round" stroke-linejoin="round" stroke-width="1"/>
        <path id="Path_638" data-name="Path 638" d="M444.2,265.665a22.513,22.513,0,0,0-10.47-3.829,22.252,22.252,0,0,0-11.657,1.714" transform="translate(-223.742 -234.377)" fill="none" stroke="#263238" stroke-linecap="round" stroke-linejoin="round" stroke-width="1"/>
        <path id="Path_639" data-name="Path 639" d="M454.14,293.085c6.515-1.348,11.452-5.513,12.028-10.916.421-3.779-1.348-7.422-4.511-10.219" transform="translate(-239.739 -239.505)" fill="none" stroke="#263238" stroke-linecap="round" stroke-linejoin="round" stroke-width="1"/>
        <path id="Path_640" data-name="Path 640" d="M422.08,276.692a4.255,4.255,0,0,0,3.2-.682l2.436,1.889c-.17.055-.155-.306.025-.316s.316.155.441.286a2.5,2.5,0,0,0,2.351.451,10.144,10.144,0,0,1,2.446-.471,6.014,6.014,0,0,1,1.448.336,68.271,68.271,0,0,0,10.3,2.07" transform="translate(-223.747 -241.53)" fill="none" stroke="#263238" stroke-linecap="round" stroke-linejoin="round" stroke-width="1"/>
        <path id="Path_641" data-name="Path 641" d="M416.34,284.146c.5-.03,3.293,0,3.694-.336l.682,1.188.752-.727c.13.5.261,1,.386,1.473.566.135.5-.957,1-1.283a.682.682,0,0,1,.887.266,1.97,1.97,0,0,1,.231,1l3.428.281.667.055a1.95,1.95,0,0,1,1-.777c-.125.792.872,1.243,1.664,1.4q5.849,1.193,11.758,2.06" transform="translate(-220.883 -245.421)" fill="none" stroke="#263238" stroke-linecap="round" stroke-linejoin="round" stroke-width="1"/>
        <path id="Path_642" data-name="Path 642" d="M419.38,295.095c.316.221.7-.19,1.088-.241s.7.241,1.042.416.9.1.922-.281c.08.5.7.682,1.208.752l13.161,1.849" transform="translate(-222.4 -250.928)" fill="none" stroke="#263238" stroke-linecap="round" stroke-linejoin="round" stroke-width="1"/>
        <path id="Path_643" data-name="Path 643" d="M68,234.757l5.272,7.1-1.057-9.287a24.437,24.437,0,0,0,3.6-2.15c5.4-3.909,7.578-10.2,5.6-15.266-1.388-3.538-4.641-5.944-8.751-6.941" transform="translate(-47.123 -207.71)" fill="none" stroke="#263238" stroke-linecap="round" stroke-linejoin="round" stroke-width="1"/>
        <path id="Path_644" data-name="Path 644" d="M26.4,238.84a10.2,10.2,0,0,0,.642,4.736c2.135,5.463,8.741,8.219,16.038,7.267" transform="translate(-26.344 -222.989)" fill="none" stroke="#263238" stroke-linecap="round" stroke-linejoin="round" stroke-width="1"/>
        <path id="Path_645" data-name="Path 645" d="M27.866,231.25a14.459,14.459,0,0,0-.576,1.614" transform="translate(-26.816 -219.203)" fill="none" stroke="#263238" stroke-linecap="round" stroke-linejoin="round" stroke-width="1"/>
        <path id="Path_646" data-name="Path 646" d="M53.158,207.372A22.488,22.488,0,0,0,42.1,208.835a22.242,22.242,0,0,0-9.522,6.936" transform="translate(-29.455 -207.213)" fill="none" stroke="#263238" stroke-linecap="round" stroke-linejoin="round" stroke-width="1"/>
        <path id="Path_647" data-name="Path 647" d="M38.14,227.547a4.27,4.27,0,0,0,2.506-2.085l3.007.541c-.13.125-.281-.2-.125-.3s.351,0,.5.05a2.49,2.49,0,0,0,2.29-.692,9.593,9.593,0,0,1,1.95-1.554,6.149,6.149,0,0,1,1.438-.381,67.865,67.865,0,0,0,10.084-2.952" transform="translate(-32.228 -213.681)" fill="none" stroke="#263238" stroke-linecap="round" stroke-linejoin="round" stroke-width="1"/>
        <path id="Path_648" data-name="Path 648" d="M36.36,235.819c.446-.266,2.917-1.534,3.117-2l1.158.737c.11-.331.221-.667.326-1l1.027,1.128c.566-.14,0-1.078.271-1.589a.677.677,0,0,1,.907-.175,1.944,1.944,0,0,1,.667.767l3.162-1.343.621-.261a1.97,1.97,0,0,1,.5-1.158c.261.767,1.353.7,2.125.471q5.738-1.654,11.372-3.639" transform="translate(-31.34 -217.457)" fill="none" stroke="#263238" stroke-linecap="round" stroke-linejoin="round" stroke-width="1"/>
        <path id="Path_649" data-name="Path 649" d="M44.1,246.189c.386.05.536-.5.852-.722s.737-.105,1.118-.115.847-.326.687-.672c.306.406.942.276,1.418.105L60.7,240.3" transform="translate(-35.201 -223.717)" fill="none" stroke="#263238" stroke-linecap="round" stroke-linejoin="round" stroke-width="1"/>
      </g>
      <g id="freepik--Typewritter--inject-326" transform="translate(29.437 0)">
        <path id="Path_843" data-name="Path 843" d="M7.635,0h118.5a7.635,7.635,0,0,1,7.635,7.635V113.75a7.635,7.635,0,0,1-7.635,7.635H7.635A7.635,7.635,0,0,1,0,113.75V7.635A7.635,7.635,0,0,1,7.635,0Z" transform="translate(14.895 13.236)" fill="#9ca6ff"/>
        <g id="Group_36" data-name="Group 36" transform="translate(14.895 13.236)" clip-path="url(#clip-path)">
          <path id="Path_650" data-name="Path 650" d="M248.574,222.29v50.619a4.275,4.275,0,0,1-4.27,4.275H119.075a4.275,4.275,0,0,1-4.275-4.275V262.885h.266v6.756a4.886,4.886,0,0,0,4.891,4.886H240.936a4.886,4.886,0,0,0,4.892-4.886V229.8a3.4,3.4,0,0,0-3.4-3.4H114.8v-4.1Z" transform="translate(-114.8 -155.799)" opacity="0.2"/>
        </g>
        <rect id="Rectangle_15" data-name="Rectangle 15" width="133.774" height="121.385" rx="8.79" transform="translate(14.895 13.236)" fill="none" stroke="#263238" stroke-linecap="round" stroke-linejoin="round" stroke-width="1"/>
        <path id="Path_651" data-name="Path 651" d="M244.245,243.144v-5.8A2.14,2.14,0,0,0,242.1,235.2H135.91a2.145,2.145,0,0,0-2.145,2.145v5.8a2.145,2.145,0,0,1-2.145,2.145h0a2.15,2.15,0,0,0-2.15,2.15v11.442a9.948,9.948,0,0,0,9.948,9.948h0a1.6,1.6,0,0,1,1.6,1.6v3.428a4.771,4.771,0,0,0,4.771,4.771h86.433a4.771,4.771,0,0,0,4.771-4.771v-3.428a1.6,1.6,0,0,1,1.6-1.6h0a9.948,9.948,0,0,0,9.948-9.948V247.439a2.15,2.15,0,0,0-2.145-2.15h0a2.15,2.15,0,0,1-2.15-2.145Z" transform="translate(-107.223 -149.003)" fill="#263238"/>
        <path id="Path_652" data-name="Path 652" d="M148.868,241.75h-3.714a1.714,1.714,0,0,0-1.714,1.714v.952c0,1.975,1.6,4.48,3.573,4.48s3.573-2.506,3.573-4.481v-.952A1.719,1.719,0,0,0,148.868,241.75Z" transform="translate(-114.191 -152.27)" fill="#9ca6ff" stroke="#263238" stroke-linecap="round" stroke-linejoin="round" stroke-width="1"/>
        <path id="Path_653" data-name="Path 653" d="M166.593,241.75h-3.714a1.719,1.719,0,0,0-1.719,1.714v.952c0,1.975,1.6,4.48,3.573,4.48s3.573-2.506,3.573-4.481v-.952a1.714,1.714,0,0,0-1.714-1.714Z" transform="translate(-123.03 -152.27)" fill="#9ca6ff" stroke="#263238" stroke-linecap="round" stroke-linejoin="round" stroke-width="1"/>
        <path id="Path_654" data-name="Path 654" d="M184.4,241.75h-3.714a1.714,1.714,0,0,0-1.714,1.714v.952c0,1.975,1.6,4.48,3.568,4.48s3.573-2.506,3.573-4.481v-.952a1.714,1.714,0,0,0-1.714-1.714Z" transform="translate(-131.915 -152.27)" fill="#9ca6ff" stroke="#263238" stroke-linecap="round" stroke-linejoin="round" stroke-width="1"/>
        <path id="Path_655" data-name="Path 655" d="M202.158,241.75h-3.714a1.714,1.714,0,0,0-1.714,1.714v.952c0,1.975,1.6,4.48,3.573,4.48s3.568-2.506,3.568-4.481v-.952a1.714,1.714,0,0,0-1.714-1.714Z" transform="translate(-140.774 -152.27)" fill="#9ca6ff" stroke="#263238" stroke-linecap="round" stroke-linejoin="round" stroke-width="1"/>
        <path id="Path_656" data-name="Path 656" d="M219.918,241.75H216.2a1.714,1.714,0,0,0-1.714,1.714v.952c0,1.975,1.6,4.48,3.573,4.48s3.573-2.506,3.573-4.481v-.952A1.719,1.719,0,0,0,219.918,241.75Z" transform="translate(-149.633 -152.27)" fill="#9ca6ff" stroke="#263238" stroke-linecap="round" stroke-linejoin="round" stroke-width="1"/>
        <path id="Path_657" data-name="Path 657" d="M237.683,241.75h-3.714a1.719,1.719,0,0,0-1.719,1.714v.952c0,1.975,1.6,4.48,3.573,4.48s3.573-2.506,3.573-4.481v-.952a1.714,1.714,0,0,0-1.714-1.714Z" transform="translate(-158.492 -152.27)" fill="#9ca6ff" stroke="#263238" stroke-linecap="round" stroke-linejoin="round" stroke-width="1"/>
        <path id="Path_658" data-name="Path 658" d="M255.448,241.75h-3.714a1.714,1.714,0,0,0-1.714,1.714v.952c0,1.975,1.6,4.48,3.568,4.48s3.573-2.506,3.573-4.481v-.952A1.714,1.714,0,0,0,255.448,241.75Z" transform="translate(-167.356 -152.27)" fill="#9ca6ff" stroke="#263238" stroke-linecap="round" stroke-linejoin="round" stroke-width="1"/>
        <path id="Path_659" data-name="Path 659" d="M273.208,241.75h-3.714a1.714,1.714,0,0,0-1.714,1.714v.952c0,1.975,1.6,4.48,3.573,4.48s3.568-2.506,3.568-4.481v-.952A1.714,1.714,0,0,0,273.208,241.75Z" transform="translate(-176.215 -152.27)" fill="#9ca6ff" stroke="#263238" stroke-linecap="round" stroke-linejoin="round" stroke-width="1"/>
        <path id="Path_660" data-name="Path 660" d="M290.988,241.75h-3.694a1.714,1.714,0,0,0-1.714,1.714v.952c0,1.975,1.6,4.481,3.573,4.481s3.573-2.506,3.573-4.481v-.952a1.719,1.719,0,0,0-1.739-1.714Z" transform="translate(-185.094 -152.27)" fill="#9ca6ff" stroke="#263238" stroke-linecap="round" stroke-linejoin="round" stroke-width="1"/>
        <path id="Path_661" data-name="Path 661" d="M308.733,241.75h-3.714a1.719,1.719,0,0,0-1.719,1.714v.952c0,1.975,1.6,4.48,3.573,4.48s3.573-2.506,3.573-4.481v-.952A1.714,1.714,0,0,0,308.733,241.75Z" transform="translate(-193.933 -152.27)" fill="#9ca6ff" stroke="#263238" stroke-linecap="round" stroke-linejoin="round" stroke-width="1"/>
        <path id="Path_662" data-name="Path 662" d="M326.5,241.75h-3.714a1.714,1.714,0,0,0-1.714,1.714v.952c0,1.975,1.6,4.48,3.568,4.48s3.573-2.506,3.573-4.481v-.952a1.714,1.714,0,0,0-1.714-1.714Z" transform="translate(-202.797 -152.27)" fill="#9ca6ff" stroke="#263238" stroke-linecap="round" stroke-linejoin="round" stroke-width="1"/>
        <path id="Path_663" data-name="Path 663" d="M344.258,241.75h-3.714a1.714,1.714,0,0,0-1.714,1.714v.952c0,1.97,1.589,4.476,3.593,4.476s3.568-2.506,3.568-4.481v-.952a1.714,1.714,0,0,0-1.734-1.709Z" transform="translate(-211.656 -152.27)" fill="#9ca6ff" stroke="#263238" stroke-linecap="round" stroke-linejoin="round" stroke-width="1"/>
        <path id="Path_664" data-name="Path 664" d="M148.868,279.39h-3.714a1.714,1.714,0,0,0-1.714,1.714v.952c0,1.975,1.6,4.481,3.573,4.481s3.573-2.506,3.573-4.481V281.1a1.719,1.719,0,0,0-1.719-1.714Z" transform="translate(-114.191 -171.046)" fill="#9ca6ff" stroke="#263238" stroke-linecap="round" stroke-linejoin="round" stroke-width="1"/>
        <path id="Path_665" data-name="Path 665" d="M166.593,279.39h-3.714a1.719,1.719,0,0,0-1.719,1.714v.952c0,1.975,1.6,4.481,3.573,4.481s3.573-2.506,3.573-4.481V281.1A1.714,1.714,0,0,0,166.593,279.39Z" transform="translate(-123.03 -171.046)" fill="#29b6f6" stroke="#263238" stroke-linecap="round" stroke-linejoin="round" stroke-width="1"/>
        <path id="Path_666" data-name="Path 666" d="M184.4,279.39h-3.714a1.714,1.714,0,0,0-1.714,1.714v.952c0,1.975,1.6,4.481,3.568,4.481s3.573-2.506,3.573-4.481V281.1A1.714,1.714,0,0,0,184.4,279.39Z" transform="translate(-131.915 -171.046)" fill="#9ca6ff" stroke="#263238" stroke-linecap="round" stroke-linejoin="round" stroke-width="1"/>
        <path id="Path_667" data-name="Path 667" d="M202.158,279.39h-3.714a1.714,1.714,0,0,0-1.714,1.714v.952c0,1.975,1.6,4.481,3.573,4.481s3.568-2.506,3.568-4.481V281.1A1.714,1.714,0,0,0,202.158,279.39Z" transform="translate(-140.774 -171.046)" fill="#29b6f6" stroke="#263238" stroke-linecap="round" stroke-linejoin="round" stroke-width="1"/>
        <path id="Path_668" data-name="Path 668" d="M219.918,279.39H216.2a1.714,1.714,0,0,0-1.714,1.714v.952c0,1.975,1.6,4.481,3.573,4.481s3.573-2.506,3.573-4.481V281.1a1.719,1.719,0,0,0-1.719-1.714Z" transform="translate(-149.633 -171.046)" fill="#9ca6ff" stroke="#263238" stroke-linecap="round" stroke-linejoin="round" stroke-width="1"/>
        <path id="Path_669" data-name="Path 669" d="M237.683,279.39h-3.714a1.719,1.719,0,0,0-1.719,1.714v.952c0,1.975,1.6,4.481,3.573,4.481s3.573-2.506,3.573-4.481V281.1A1.714,1.714,0,0,0,237.683,279.39Z" transform="translate(-158.492 -171.046)" fill="#9ca6ff" stroke="#263238" stroke-linecap="round" stroke-linejoin="round" stroke-width="1"/>
        <path id="Path_670" data-name="Path 670" d="M255.448,279.39h-3.714a1.714,1.714,0,0,0-1.714,1.714v.952c0,1.975,1.6,4.481,3.568,4.481s3.573-2.506,3.573-4.481V281.1A1.714,1.714,0,0,0,255.448,279.39Z" transform="translate(-167.356 -171.046)" fill="#9ca6ff" stroke="#263238" stroke-linecap="round" stroke-linejoin="round" stroke-width="1"/>
        <path id="Path_671" data-name="Path 671" d="M273.208,279.39h-3.714a1.714,1.714,0,0,0-1.714,1.714v.952c0,1.975,1.6,4.481,3.573,4.481s3.568-2.506,3.568-4.481V281.1A1.714,1.714,0,0,0,273.208,279.39Z" transform="translate(-176.215 -171.046)" fill="#9ca6ff" stroke="#263238" stroke-linecap="round" stroke-linejoin="round" stroke-width="1"/>
        <path id="Path_672" data-name="Path 672" d="M290.988,279.39h-3.694a1.714,1.714,0,0,0-1.714,1.714v.952c0,1.975,1.6,4.481,3.573,4.481s3.573-2.506,3.573-4.481V281.1a1.719,1.719,0,0,0-1.739-1.714Z" transform="translate(-185.094 -171.046)" fill="#9ca6ff" stroke="#263238" stroke-linecap="round" stroke-linejoin="round" stroke-width="1"/>
        <path id="Path_673" data-name="Path 673" d="M308.733,279.39h-3.714A1.719,1.719,0,0,0,303.3,281.1v.952c0,1.975,1.6,4.481,3.573,4.481s3.573-2.506,3.573-4.481V281.1a1.714,1.714,0,0,0-1.714-1.714Z" transform="translate(-193.933 -171.046)" fill="#9ca6ff" stroke="#263238" stroke-linecap="round" stroke-linejoin="round" stroke-width="1"/>
        <path id="Path_674" data-name="Path 674" d="M326.5,279.39h-3.714a1.714,1.714,0,0,0-1.714,1.714v.952c0,1.975,1.6,4.481,3.568,4.481s3.573-2.506,3.573-4.481V281.1A1.714,1.714,0,0,0,326.5,279.39Z" transform="translate(-202.797 -171.046)" fill="#29b6f6" stroke="#263238" stroke-linecap="round" stroke-linejoin="round" stroke-width="1"/>
        <path id="Path_675" data-name="Path 675" d="M344.258,279.39h-3.714a1.714,1.714,0,0,0-1.714,1.714v.952c0,1.975,1.6,4.481,3.573,4.481s3.568-2.506,3.568-4.481V281.1A1.714,1.714,0,0,0,344.258,279.39Z" transform="translate(-211.656 -171.046)" fill="#29b6f6" stroke="#263238" stroke-linecap="round" stroke-linejoin="round" stroke-width="1"/>
        <path id="Path_676" data-name="Path 676" d="M140,261.18h-3.7a1.714,1.714,0,0,0-1.714,1.714v.952c0,1.97,1.6,4.481,3.573,4.481s3.568-2.506,3.568-4.481v-.952A1.714,1.714,0,0,0,140,261.18Z" transform="translate(-109.772 -161.962)" fill="#9ca6ff" stroke="#263238" stroke-linecap="round" stroke-linejoin="round" stroke-width="1"/>
        <path id="Path_677" data-name="Path 677" d="M157.748,261.18h-3.714a1.714,1.714,0,0,0-1.714,1.714v.952c0,1.97,1.6,4.481,3.573,4.481s3.573-2.506,3.573-4.481v-.952a1.719,1.719,0,0,0-1.719-1.714Z" transform="translate(-118.621 -161.962)" fill="#29b6f6" stroke="#263238" stroke-linecap="round" stroke-linejoin="round" stroke-width="1"/>
        <path id="Path_678" data-name="Path 678" d="M175.513,261.18H171.8a1.719,1.719,0,0,0-1.719,1.714v.952c0,1.97,1.6,4.481,3.573,4.481s3.573-2.506,3.573-4.481v-.952a1.714,1.714,0,0,0-1.714-1.714Z" transform="translate(-127.48 -161.962)" fill="#29b6f6" stroke="#263238" stroke-linecap="round" stroke-linejoin="round" stroke-width="1"/>
        <path id="Path_679" data-name="Path 679" d="M193.278,261.18h-3.714a1.714,1.714,0,0,0-1.714,1.714v.952c0,1.97,1.6,4.481,3.568,4.481s3.573-2.506,3.573-4.481v-.952a1.714,1.714,0,0,0-1.714-1.714Z" transform="translate(-136.344 -161.962)" fill="#9ca6ff" stroke="#263238" stroke-linecap="round" stroke-linejoin="round" stroke-width="1"/>
        <path id="Path_680" data-name="Path 680" d="M211.023,261.18h-3.729a1.714,1.714,0,0,0-1.714,1.714v.952c0,1.97,1.6,4.481,3.573,4.481s3.568-2.506,3.568-4.481v-.952a1.714,1.714,0,0,0-1.7-1.714Z" transform="translate(-145.188 -161.962)" fill="#9ca6ff" stroke="#263238" stroke-linecap="round" stroke-linejoin="round" stroke-width="1"/>
        <path id="Path_681" data-name="Path 681" d="M228.8,261.18h-3.714a1.714,1.714,0,0,0-1.714,1.714v.952c0,1.97,1.6,4.481,3.573,4.481s3.573-2.506,3.573-4.481v-.952A1.719,1.719,0,0,0,228.8,261.18Z" transform="translate(-154.062 -161.962)" fill="#9ca6ff" stroke="#263238" stroke-linecap="round" stroke-linejoin="round" stroke-width="1"/>
        <path id="Path_682" data-name="Path 682" d="M246.593,261.18h-3.714a1.719,1.719,0,0,0-1.719,1.714v.952c0,1.97,1.6,4.481,3.573,4.481s3.573-2.506,3.573-4.481v-.952a1.714,1.714,0,0,0-1.714-1.714Z" transform="translate(-162.936 -161.962)" fill="#9ca6ff" stroke="#263238" stroke-linecap="round" stroke-linejoin="round" stroke-width="1"/>
        <path id="Path_683" data-name="Path 683" d="M264.328,261.18h-3.714a1.714,1.714,0,0,0-1.714,1.714v.952c0,1.97,1.6,4.481,3.568,4.481s3.573-2.506,3.573-4.481v-.952a1.714,1.714,0,0,0-1.714-1.714Z" transform="translate(-171.785 -161.962)" fill="#9ca6ff" stroke="#263238" stroke-linecap="round" stroke-linejoin="round" stroke-width="1"/>
        <path id="Path_684" data-name="Path 684" d="M282.088,261.18h-3.714a1.714,1.714,0,0,0-1.714,1.714v.952c0,1.97,1.6,4.481,3.573,4.481s3.568-2.506,3.568-4.481v-.952a1.714,1.714,0,0,0-1.714-1.714Z" transform="translate(-180.645 -161.962)" fill="#9ca6ff" stroke="#263238" stroke-linecap="round" stroke-linejoin="round" stroke-width="1"/>
        <path id="Path_685" data-name="Path 685" d="M299.848,261.18h-3.714a1.714,1.714,0,0,0-1.714,1.714v.952c0,1.97,1.6,4.481,3.573,4.481s3.573-2.506,3.573-4.481v-.952A1.719,1.719,0,0,0,299.848,261.18Z" transform="translate(-189.504 -161.962)" fill="#9ca6ff" stroke="#263238" stroke-linecap="round" stroke-linejoin="round" stroke-width="1"/>
        <path id="Path_686" data-name="Path 686" d="M317.593,261.18h-3.714a1.719,1.719,0,0,0-1.719,1.714v.952c0,1.97,1.6,4.481,3.573,4.481s3.573-2.506,3.573-4.481v-.952a1.714,1.714,0,0,0-1.714-1.714Z" transform="translate(-198.353 -161.962)" fill="#9ca6ff" stroke="#263238" stroke-linecap="round" stroke-linejoin="round" stroke-width="1"/>
        <path id="Path_687" data-name="Path 687" d="M335.4,261.18h-3.714A1.714,1.714,0,0,0,330,262.894v.952c0,1.97,1.6,4.48,3.568,4.48s3.573-2.506,3.573-4.48v-.952a1.714,1.714,0,0,0-1.739-1.714Z" transform="translate(-207.252 -161.962)" fill="#29b6f6" stroke="#263238" stroke-linecap="round" stroke-linejoin="round" stroke-width="1"/>
        <path id="Path_688" data-name="Path 688" d="M353.138,261.18h-3.714a1.714,1.714,0,0,0-1.714,1.714v.952c0,1.97,1.6,4.481,3.573,4.481s3.568-2.506,3.568-4.481v-.952a1.714,1.714,0,0,0-1.714-1.714Z" transform="translate(-216.086 -161.962)" fill="#29b6f6" stroke="#263238" stroke-linecap="round" stroke-linejoin="round" stroke-width="1"/>
        <rect id="Rectangle_16" data-name="Rectangle 16" width="71.217" height="8.099" rx="3.21" transform="translate(46.173 117.847)" fill="#9ca6ff" stroke="#263238" stroke-linecap="round" stroke-linejoin="round" stroke-width="1"/>
        <path id="Path_689" data-name="Path 689" d="M328.868,299.3h-3.714a1.714,1.714,0,0,0-1.714,1.714v.952c0,1.975,1.6,4.481,3.573,4.481s3.568-2.506,3.568-4.481v-.952A1.714,1.714,0,0,0,328.868,299.3Z" transform="translate(-203.98 -180.977)" fill="#29b6f6" stroke="#263238" stroke-linecap="round" stroke-linejoin="round" stroke-width="1"/>
        <path id="Path_690" data-name="Path 690" d="M164.258,299.3h-3.714a1.714,1.714,0,0,0-1.714,1.714v.952c0,1.975,1.6,4.481,3.573,4.481s3.573-2.506,3.573-4.481v-.952A1.719,1.719,0,0,0,164.258,299.3Z" transform="translate(-121.868 -180.977)" fill="#29b6f6" stroke="#263238" stroke-linecap="round" stroke-linejoin="round" stroke-width="1"/>
        <path id="Path_691" data-name="Path 691" d="M150.036,245.439a3.048,3.048,0,0,1,.536.05v-1.057a.747.747,0,0,0-.747-.742h-3.714a.747.747,0,0,0-.742.742v.952a3.861,3.861,0,0,0,2.185,3.438A2.6,2.6,0,0,1,150.036,245.439Z" transform="translate(-115.154 -153.238)" opacity="0.2"/>
        <path id="Path_692" data-name="Path 692" d="M168,245.164a2.5,2.5,0,0,1,.341,0v-.772a.747.747,0,0,0-.742-.742h-3.714a.747.747,0,0,0-.747.742v.952c0,1.5,1.188,3.383,2.506,3.508A2.607,2.607,0,0,1,168,245.164Z" transform="translate(-124.018 -153.218)" opacity="0.2"/>
        <path id="Path_693" data-name="Path 693" d="M186.027,245.048h.075v-.626a.742.742,0,0,0-.742-.742h-3.714a.747.747,0,0,0-.747.742v.952c0,1.529,1.263,3.508,2.6,3.508a1.294,1.294,0,0,0,.2,0A2.652,2.652,0,0,1,186.027,245.048Z" transform="translate(-132.877 -153.233)" opacity="0.2"/>
        <path id="Path_694" data-name="Path 694" d="M203.206,244.778a2.857,2.857,0,0,1,.621.05v-.436a.742.742,0,0,0-.742-.742h-3.714a.742.742,0,0,0-.742.742v.952c0,1.433,1.1,3.258,2.346,3.508A2.687,2.687,0,0,1,203.206,244.778Z" transform="translate(-141.721 -153.218)" opacity="0.2"/>
        <path id="Path_695" data-name="Path 695" d="M221.442,244.788h.19v-.376a.747.747,0,0,0-.747-.742h-3.714a.747.747,0,0,0-.742.742v.952c0,1.529,1.263,3.508,2.6,3.508a1.434,1.434,0,0,0,.205,0A2.675,2.675,0,0,1,221.442,244.788Z" transform="translate(-150.6 -153.228)" opacity="0.2"/>
        <path id="Path_696" data-name="Path 696" d="M239.277,244.828h.115v-.436a.747.747,0,0,0-.742-.742h-3.714a.747.747,0,0,0-.747.742v.952c0,1.529,1.263,3.508,2.6,3.508a1.364,1.364,0,0,0,.246,0A2.673,2.673,0,0,1,239.277,244.828Z" transform="translate(-159.46 -153.218)" opacity="0.2"/>
        <path id="Path_697" data-name="Path 697" d="M256.731,244.8a3.792,3.792,0,0,1,.426.03v-.4a.742.742,0,0,0-.742-.742H252.7a.742.742,0,0,0-.742.742v.952c0,1.5,1.243,3.478,2.571,3.508A2.675,2.675,0,0,1,256.731,244.8Z" transform="translate(-168.324 -153.238)" opacity="0.2"/>
        <path id="Path_698" data-name="Path 698" d="M274.917,244.923v-.5a.742.742,0,0,0-.742-.742h-3.714a.742.742,0,0,0-.742.742v.952c0,1.529,1.258,3.508,2.6,3.508a1.364,1.364,0,0,0,.4-.065A2.658,2.658,0,0,1,274.917,244.923Z" transform="translate(-177.183 -153.233)" opacity="0.2"/>
        <path id="Path_699" data-name="Path 699" d="M291.97,244.732a2.812,2.812,0,0,1,.732.1v-.4a.747.747,0,0,0-.747-.742h-3.694a.747.747,0,0,0-.742.742v.952c0,1.413,1.073,3.2,2.29,3.468A2.657,2.657,0,0,1,291.97,244.732Z" transform="translate(-186.062 -153.238)" opacity="0.2"/>
        <path id="Path_700" data-name="Path 700" d="M309.911,244.732a2.94,2.94,0,0,1,.531.05v-.351a.747.747,0,0,0-.742-.742h-3.714a.747.747,0,0,0-.747.742v.952c0,1.5,1.2,3.413,2.506,3.508A2.682,2.682,0,0,1,309.911,244.732Z" transform="translate(-194.901 -153.238)" opacity="0.2"/>
        <path id="Path_701" data-name="Path 701" d="M327.816,244.988a3.255,3.255,0,0,1,.391.03v-.586a.742.742,0,0,0-.742-.742h-3.714a.742.742,0,0,0-.742.742v.952c0,1.5,1.2,3.408,2.506,3.508A2.659,2.659,0,0,1,327.816,244.988Z" transform="translate(-203.765 -153.238)" opacity="0.2"/>
        <path id="Path_702" data-name="Path 702" d="M345.967,244.873v-.441a.742.742,0,0,0-.742-.742h-3.714a.742.742,0,0,0-.742.742v.952c0,1.529,1.258,3.508,2.6,3.508a1.468,1.468,0,0,0,.561-.12A2.665,2.665,0,0,1,345.967,244.873Z" transform="translate(-212.624 -153.238)" opacity="0.2"/>
        <path id="Path_703" data-name="Path 703" d="M150.3,282.157a2.639,2.639,0,0,1,.286,0v-.105a.747.747,0,0,0-.747-.742h-3.714a.747.747,0,0,0-.742.742V283c0,1.529,1.263,3.508,2.6,3.508a1.656,1.656,0,0,0,.276-.03C147.134,284.959,147.816,282.157,150.3,282.157Z" transform="translate(-115.159 -172.003)" opacity="0.2"/>
        <path id="Path_704" data-name="Path 704" d="M167.876,282.172a2.83,2.83,0,0,1,.466.04v-.13a.747.747,0,0,0-.742-.742h-3.714a.747.747,0,0,0-.747.742v.952c0,1.529,1.263,3.508,2.6,3.508h.11C164.7,285,165.38,282.172,167.876,282.172Z" transform="translate(-124.018 -172.018)" opacity="0.2"/>
        <path id="Path_705" data-name="Path 705" d="M185.561,282.292a2.878,2.878,0,0,1,.5.045v-.266a.742.742,0,0,0-.742-.742h-3.714a.747.747,0,0,0-.747.742v.952c0,1.5,1.243,3.473,2.571,3.508C182.434,284.974,183.13,282.292,185.561,282.292Z" transform="translate(-132.857 -172.013)" opacity="0.2"/>
        <path id="Path_706" data-name="Path 706" d="M203.481,282.357a3.12,3.12,0,0,1,.386.025v-.311a.742.742,0,0,0-.742-.742h-3.714a.742.742,0,0,0-.742.742v.952c0,1.529,1.258,3.508,2.6,3.508h.06A2.679,2.679,0,0,1,203.481,282.357Z" transform="translate(-141.741 -172.013)" opacity="0.2"/>
        <path id="Path_707" data-name="Path 707" d="M221.061,282.172a3,3,0,0,1,.571.055v-.145a.747.747,0,0,0-.747-.742h-3.714a.747.747,0,0,0-.742.742v.952c0,1.529,1.263,3.508,2.6,3.508h0C217.888,285.009,218.56,282.172,221.061,282.172Z" transform="translate(-150.6 -172.018)" opacity="0.2"/>
        <path id="Path_708" data-name="Path 708" d="M238.956,282.227a3.006,3.006,0,0,1,.436.035v-.19a.747.747,0,0,0-.742-.742h-3.714a.747.747,0,0,0-.747.742v.952c0,1.529,1.263,3.508,2.6,3.508h.1C235.8,284.979,236.5,282.227,238.956,282.227Z" transform="translate(-159.46 -172.013)" opacity="0.2"/>
        <path id="Path_709" data-name="Path 709" d="M257.052,282.413h.105v-.351a.742.742,0,0,0-.742-.742H252.7a.742.742,0,0,0-.742.742v.952c0,1.529,1.258,3.508,2.6,3.508a1.4,1.4,0,0,0,.291-.035A2.673,2.673,0,0,1,257.052,282.413Z" transform="translate(-168.324 -172.008)" opacity="0.2"/>
        <path id="Path_710" data-name="Path 710" d="M274.872,282.227h.03v-.155a.742.742,0,0,0-.742-.742h-3.7a.742.742,0,0,0-.742.742v.952c0,1.529,1.258,3.508,2.6,3.508a1.428,1.428,0,0,0,.451-.08C271.755,284.9,272.461,282.227,274.872,282.227Z" transform="translate(-177.183 -172.013)" opacity="0.2"/>
        <path id="Path_711" data-name="Path 711" d="M292.417,282.027h.281a.747.747,0,0,0-.742-.717h-3.694a.747.747,0,0,0-.742.742V283c0,1.529,1.263,3.508,2.6,3.508a1.5,1.5,0,0,0,.361-.055C289.224,284.964,289.876,282.027,292.417,282.027Z" transform="translate(-186.062 -172.003)" opacity="0.2"/>
        <path id="Path_712" data-name="Path 712" d="M310.412,282.172h0v-.09a.747.747,0,0,0-.742-.742h-3.714a.747.747,0,0,0-.747.742v.952c0,1.529,1.263,3.508,2.6,3.508a1.58,1.58,0,0,0,.5-.09C307.265,284.9,307.956,282.172,310.412,282.172Z" transform="translate(-194.886 -172.018)" opacity="0.2"/>
        <path id="Path_713" data-name="Path 713" d="M328.027,282.162h.2v-.1a.742.742,0,0,0-.742-.742h-3.714a.742.742,0,0,0-.742.742v.952c0,1.529,1.258,3.508,2.6,3.508a1.379,1.379,0,0,0,.351-.05C324.859,284.938,325.546,282.162,328.027,282.162Z" transform="translate(-203.775 -172.008)" opacity="0.2"/>
        <path id="Path_714" data-name="Path 714" d="M345.646,282.523h.321v-.5a.742.742,0,0,0-.742-.742h-3.714a.742.742,0,0,0-.742.742v.952c0,1.529,1.258,3.508,2.6,3.508h0A2.664,2.664,0,0,1,345.646,282.523Z" transform="translate(-212.624 -171.988)" opacity="0.2"/>
        <path id="Path_715" data-name="Path 715" d="M141.647,264.107h.065v-.246a.747.747,0,0,0-.747-.742h-3.7a.742.742,0,0,0-.742.742v.952c0,1.529,1.258,3.508,2.6,3.508a1.47,1.47,0,0,0,.381-.06A2.667,2.667,0,0,1,141.647,264.107Z" transform="translate(-110.739 -162.93)" opacity="0.2"/>
        <path id="Path_716" data-name="Path 716" d="M159.212,264.1h.251v-.256a.747.747,0,0,0-.747-.742H155a.747.747,0,0,0-.742.742v.952c0,1.529,1.263,3.508,2.6,3.508a1.641,1.641,0,0,0,.221,0C156.094,266.734,156.806,264.1,159.212,264.1Z" transform="translate(-119.589 -162.92)" opacity="0.2"/>
        <path id="Path_717" data-name="Path 717" d="M177.167,264.107h.045v-.246a.747.747,0,0,0-.742-.742h-3.714a.747.747,0,0,0-.757.742v.952c0,1.529,1.263,3.508,2.6,3.508a1.339,1.339,0,0,0,.4-.065A2.679,2.679,0,0,1,177.167,264.107Z" transform="translate(-128.438 -162.93)" opacity="0.2"/>
        <path id="Path_718" data-name="Path 718" d="M194.757,264.072h.231v-.19a.742.742,0,0,0-.742-.742h-3.714a.742.742,0,0,0-.742.742v.952c0,1.529,1.258,3.508,2.6,3.508a1.539,1.539,0,0,0,.271-.03A2.674,2.674,0,0,1,194.757,264.072Z" transform="translate(-137.312 -162.94)" opacity="0.2"/>
        <path id="Path_719" data-name="Path 719" d="M212.271,264.107a2.855,2.855,0,0,1,.476.04v-.286a.742.742,0,0,0-.742-.742h-3.744a.742.742,0,0,0-.742.742v.952c0,1.529,1.258,3.508,2.6,3.508h0A2.688,2.688,0,0,1,212.271,264.107Z" transform="translate(-146.156 -162.93)" opacity="0.2"/>
        <path id="Path_720" data-name="Path 720" d="M230.106,263.787a3.446,3.446,0,0,1,.4.025.747.747,0,0,0-.742-.692h-3.714a.747.747,0,0,0-.742.742v.952c0,1.529,1.263,3.508,2.6,3.508a1.39,1.39,0,0,0,.286-.035C226.894,266.8,227.53,263.787,230.106,263.787Z" transform="translate(-155.03 -162.93)" opacity="0.2"/>
        <path id="Path_721" data-name="Path 721" d="M247.936,264.147h.336v-.326a.747.747,0,0,0-.742-.742h-3.714a.747.747,0,0,0-.747.742v.952c0,1.529,1.263,3.508,2.6,3.508h.1A2.665,2.665,0,0,1,247.936,264.147Z" transform="translate(-163.889 -162.91)" opacity="0.2"/>
        <path id="Path_722" data-name="Path 722" d="M266.037,263.862a.742.742,0,0,0-.742-.742h-3.714a.742.742,0,0,0-.742.742v.952c0,1.529,1.258,3.508,2.6,3.508a1.629,1.629,0,0,0,.762-.21A2.7,2.7,0,0,1,266.037,263.862Z" transform="translate(-172.753 -162.93)" opacity="0.2"/>
        <path id="Path_723" data-name="Path 723" d="M283.827,264.072v-.19a.742.742,0,0,0-.742-.742h-3.714a.742.742,0,0,0-.742.742v.952c0,1.529,1.258,3.508,2.6,3.508a1.5,1.5,0,0,0,.621-.145A2.667,2.667,0,0,1,283.827,264.072Z" transform="translate(-181.627 -162.94)" opacity="0.2"/>
        <path id="Path_724" data-name="Path 724" d="M301.251,263.9h.311v-.065a.747.747,0,0,0-.747-.742H297.1a.747.747,0,0,0-.742.742v.952c0,1.529,1.263,3.508,2.6,3.508a1.3,1.3,0,0,0,.281-.035C298.079,266.749,298.746,263.9,301.251,263.9Z" transform="translate(-190.471 -162.915)" opacity="0.2"/>
        <path id="Path_725" data-name="Path 725" d="M319.322,264.238v-.376a.747.747,0,0,0-.742-.742h-3.714a.747.747,0,0,0-.747.742v.952c0,1.529,1.263,3.508,2.6,3.508a1.5,1.5,0,0,0,.446-.075A2.663,2.663,0,0,1,319.322,264.238Z" transform="translate(-199.33 -162.93)" opacity="0.2"/>
        <path id="Path_726" data-name="Path 726" d="M336.666,263.977a3.686,3.686,0,0,1,.421.03v-.145a.742.742,0,0,0-.742-.742h-3.714a.742.742,0,0,0-.742.742v.952c0,1.529,1.258,3.508,2.6,3.508a1.2,1.2,0,0,0,.14,0C333.5,266.774,334.185,263.977,336.666,263.977Z" transform="translate(-208.195 -162.93)" opacity="0.2"/>
        <path id="Path_727" data-name="Path 727" d="M354.5,264.363a2.564,2.564,0,0,1,.346,0v-.5a.742.742,0,0,0-.742-.742h-3.714a.742.742,0,0,0-.742.742v.952c0,1.5,1.248,3.508,2.586,3.508A2.656,2.656,0,0,1,354.5,264.363Z" transform="translate(-217.054 -162.93)" opacity="0.2"/>
        <rect id="Rectangle_17" data-name="Rectangle 17" width="6.154" height="69.273" rx="1.21" transform="translate(116.418 118.819) rotate(90)" opacity="0.2"/>
        <path id="Path_728" data-name="Path 728" d="M330.577,302.473v-.5a.742.742,0,0,0-.742-.742h-3.714a.742.742,0,0,0-.742.742v.952c0,1.529,1.258,3.508,2.6,3.508a1.505,1.505,0,0,0,.331-.045A2.656,2.656,0,0,1,330.577,302.473Z" transform="translate(-204.947 -181.94)" opacity="0.2"/>
        <path id="Path_729" data-name="Path 729" d="M165.536,302.157a3.006,3.006,0,0,1,.436.035v-.21a.747.747,0,0,0-.747-.742h-3.714a.747.747,0,0,0-.742.742v.952c0,1.529,1.263,3.508,2.6,3.508h.085C162.389,304.889,163.09,302.157,165.536,302.157Z" transform="translate(-122.836 -181.945)" opacity="0.2"/>
        <path id="Path_730" data-name="Path 730" d="M122.532,94.5H245.381a3.182,3.182,0,0,1,3.182,3.182v28.066H119.35V97.682A3.182,3.182,0,0,1,122.532,94.5Z" transform="translate(-102.175 -78.818)" opacity="0.2"/>
        <path id="Path_731" data-name="Path 731" d="M244.032,84.184H141.291A116.773,116.773,0,0,0,136.78,63.21H248.562a112.051,112.051,0,0,0-4.531,20.974Z" transform="translate(-110.869 -63.21)" fill="#fff"/>
        <g id="Group_37" data-name="Group 37" transform="translate(25.911)" clip-path="url(#clip-path-2)">
          <path id="Path_732" data-name="Path 732" d="M248.521,91.57c-.747,4.08-1,6.761-1,6.761H144.777s-.261-2.631-1.027-6.761Z" transform="translate(-140.257 -77.357)" opacity="0.2"/>
        </g>
        <path id="Path_734" data-name="Path 734" d="M244.032,84.184H141.291A116.773,116.773,0,0,0,136.78,63.21H248.562a112.051,112.051,0,0,0-4.531,20.974Z" transform="translate(-110.869 -63.21)" fill="none" stroke="#263238" stroke-linecap="round" stroke-linejoin="round" stroke-width="1"/>
        <rect id="Rectangle_18" data-name="Rectangle 18" width="100.792" height="41.467" transform="translate(30.973 38.636)" fill="#263238"/>
        <g id="Group_38" data-name="Group 38" transform="translate(48.293 45.146)" opacity="0.4">
          <path id="Path_735" data-name="Path 735" d="M242.42,184.818l.531.025q1-15.511,2-31.073Q243.678,169.337,242.42,184.818Z" transform="translate(-211.858 -153.529)" fill="#fff"/>
          <path id="Path_736" data-name="Path 736" d="M239,184.693l.531.045Q241.27,169.327,243,153.78,241,169.337,239,184.693Z" transform="translate(-210.152 -153.534)" fill="#fff"/>
          <path id="Path_737" data-name="Path 737" d="M235.67,184.5a4.785,4.785,0,0,1,.531.06q2.466-15.246,4.962-30.787Q238.406,169.327,235.67,184.5Z" transform="translate(-208.491 -153.529)" fill="#fff"/>
          <path id="Path_738" data-name="Path 738" d="M232.3,184.227l.536.085q3.2-15.035,6.445-30.572Q235.773,169.292,232.3,184.227Z" transform="translate(-206.81 -153.514)" fill="#fff"/>
          <path id="Path_739" data-name="Path 739" d="M228.94,183.921l.541.11q3.909-14.75,7.924-30.271Q233.135,169.286,228.94,183.921Z" transform="translate(-205.134 -153.524)" fill="#fff"/>
          <path id="Path_740" data-name="Path 740" d="M225.6,183.535l.541.135c3.072-9.613,6.23-19.581,9.4-29.92C232.185,164.089,228.843,174.013,225.6,183.535Z" transform="translate(-203.468 -153.519)" fill="#fff"/>
          <path id="Path_741" data-name="Path 741" d="M222.27,183.074l.546.16c3.508-9.342,7.182-19.175,10.861-29.5C229.813,164.059,225.964,173.837,222.27,183.074Z" transform="translate(-201.807 -153.509)" fill="#fff"/>
          <path id="Path_742" data-name="Path 742" d="M219,182.558l.546.175c3.964-9.021,8.124-18.7,12.314-29.013C227.465,164.034,223.115,173.642,219,182.558Z" transform="translate(-200.176 -153.504)" fill="#fff"/>
          <path id="Path_743" data-name="Path 743" d="M215.68,181.961l.551.2c4.39-8.68,9.056-18.163,13.757-28.462C225.092,164,220.231,173.4,215.68,181.961Z" transform="translate(-198.52 -153.495)" fill="#fff"/>
          <path id="Path_744" data-name="Path 744" d="M212.44,181.29l.551.231c4.791-8.289,9.963-17.541,15.181-27.84C222.744,163.959,217.387,173.161,212.44,181.29Z" transform="translate(-196.904 -153.485)" fill="#fff"/>
          <path id="Path_745" data-name="Path 745" d="M209.23,180.538l.551.266c5.172-7.843,10.85-16.89,16.589-27.144C220.426,163.914,214.553,172.875,209.23,180.538Z" transform="translate(-195.302 -153.475)" fill="#fff"/>
          <path id="Path_746" data-name="Path 746" d="M206.07,179.7l.551.3c5.513-7.352,11.712-16.143,17.972-26.372A301.612,301.612,0,0,1,206.07,179.7Z" transform="translate(-193.726 -153.46)" fill="#fff"/>
          <path id="Path_747" data-name="Path 747" d="M203,178.789c.18.115.371.221.556.331a262.005,262.005,0,0,0,19.325-25.51A238.378,238.378,0,0,1,203,178.789Z" transform="translate(-192.195 -153.45)" fill="#fff"/>
          <path id="Path_748" data-name="Path 748" d="M199.93,177.792l.546.376A208.372,208.372,0,0,0,221.13,153.61a190.574,190.574,0,0,1-21.2,24.182Z" transform="translate(-190.663 -153.45)" fill="#fff"/>
          <path id="Path_749" data-name="Path 749" d="M219.468,153.55A154.964,154.964,0,0,1,197,176.674l.536.416a168.73,168.73,0,0,0,21.931-23.54Z" transform="translate(-189.202 -153.42)" fill="#fff"/>
          <path id="Path_750" data-name="Path 750" d="M217.846,153.52a127.968,127.968,0,0,1-23.7,21.962l.531.456A138.06,138.06,0,0,0,217.846,153.52Z" transform="translate(-187.78 -153.405)" fill="#fff"/>
          <path id="Path_751" data-name="Path 751" d="M216.278,153.49c-9.106,9.948-17.977,16.845-24.838,20.694.165.17.331.341.5.5C198.737,170.525,207.412,163.463,216.278,153.49Z" transform="translate(-186.428 -153.39)" fill="#fff"/>
          <path id="Path_752" data-name="Path 752" d="M214.846,153.45c-9.6,9.848-18.934,16.288-25.906,19.345l.5.546C196.342,169.949,205.464,163.328,214.846,153.45Z" transform="translate(-185.181 -153.37)" fill="#fff"/>
          <path id="Path_753" data-name="Path 753" d="M186.64,171.317c.145.2.3.4.446.6,6.991-2.581,16.539-8.741,26.417-18.493C203.424,163.128,193.672,169.087,186.64,171.317Z" transform="translate(-184.034 -153.355)" fill="#fff"/>
          <path id="Path_754" data-name="Path 754" d="M184.6,169.759c.13.21.266.421.4.632,7.016-1.764,16.98-7.432,27.284-17.04C201.78,162.9,191.642,168.36,184.6,169.759Z" transform="translate(-183.016 -153.32)" fill="#fff"/>
          <path id="Path_755" data-name="Path 755" d="M182.86,168.215c.11.221.226.436.341.657,7.016-.952,17.321-6.119,28.016-15.511C200.346,162.662,189.876,167.613,182.86,168.215Z" transform="translate(-182.148 -153.325)" fill="#fff"/>
          <path id="Path_756" data-name="Path 756" d="M181.44,166.6c.09.221.185.446.281.667,6.976-.17,17.541-4.826,28.567-13.973C199.137,162.341,188.406,166.772,181.44,166.6Z" transform="translate(-181.44 -153.29)" fill="#fff"/>
          <path id="Path_757" data-name="Path 757" d="M245.81,184.893h.526q.241-15.536.5-31.113Q246.311,169.347,245.81,184.893Z" transform="translate(-213.549 -153.534)" fill="#fff"/>
          <path id="Path_758" data-name="Path 758" d="M248.721,184.913h.531q-.5-15.536-1-31.113Z" transform="translate(-214.766 -153.544)" fill="#fff"/>
          <path id="Path_759" data-name="Path 759" d="M250.6,184.863h.531q-1.253-15.486-2.506-31.073Q249.617,169.357,250.6,184.863Z" transform="translate(-214.956 -153.539)" fill="#fff"/>
          <path id="Path_760" data-name="Path 760" d="M252.538,184.753l.531-.04q-2-15.371-4.009-30.933Q250.784,169.342,252.538,184.753Z" transform="translate(-215.17 -153.534)" fill="#fff"/>
          <path id="Path_761" data-name="Path 761" d="M254.372,184.587l.531-.065q-2.726-15.191-5.513-30.752Q251.9,169.332,254.372,184.587Z" transform="translate(-215.335 -153.529)" fill="#fff"/>
          <path id="Path_762" data-name="Path 762" d="M256.275,184.362l.536-.08q-3.458-14.96-6.991-30.512Q253.068,169.327,256.275,184.362Z" transform="translate(-215.55 -153.529)" fill="#fff"/>
          <path id="Path_763" data-name="Path 763" d="M258.159,184.071l.536-.1q-4.175-14.664-8.475-30.211Q254.219,169.307,258.159,184.071Z" transform="translate(-215.749 -153.524)" fill="#fff"/>
          <path id="Path_764" data-name="Path 764" d="M260.032,183.715l.546-.125c-3.248-9.522-6.6-19.481-9.958-29.84Q255.386,169.291,260.032,183.715Z" transform="translate(-215.949 -153.519)" fill="#fff"/>
          <path id="Path_765" data-name="Path 765" d="M261.906,183.294l.541-.155c-3.7-9.257-7.553-19.045-11.427-29.409C254.7,164.084,258.372,173.912,261.906,183.294Z" transform="translate(-216.148 -153.509)" fill="#fff"/>
          <path id="Path_766" data-name="Path 766" d="M263.764,182.8l.551-.18c-4.145-8.931-8.52-18.544-12.9-28.9C255.62,164.059,259.79,173.747,263.764,182.8Z" transform="translate(-216.348 -153.504)" fill="#fff"/>
          <path id="Path_767" data-name="Path 767" d="M265.612,182.237l.551-.205c-4.561-8.565-9.432-18-14.344-28.332C256.536,164.029,261.212,173.532,265.612,182.237Z" transform="translate(-216.547 -153.495)" fill="#fff"/>
          <path id="Path_768" data-name="Path 768" d="M267.446,181.6c.185-.08.376-.15.556-.231-4.962-8.149-10.344-17.376-15.782-27.69C257.457,163.994,262.634,173.291,267.446,181.6Z" transform="translate(-216.747 -153.485)" fill="#fff"/>
          <path id="Path_769" data-name="Path 769" d="M269.264,180.9l.556-.266c-5.338-7.683-11.236-16.669-17.2-26.963C258.378,163.954,264.072,173.03,269.264,180.9Z" transform="translate(-216.946 -153.48)" fill="#fff"/>
          <path id="Path_770" data-name="Path 770" d="M271.042,180.092c.185-.1.371-.2.551-.3A303.022,303.022,0,0,1,253,153.63C259.295,163.9,265.529,172.72,271.042,180.092Z" transform="translate(-217.136 -153.46)" fill="#fff"/>
          <path id="Path_771" data-name="Path 771" d="M272.826,179.215l.561-.331A238.979,238.979,0,0,1,253.42,153.61a261.847,261.847,0,0,0,19.406,25.605Z" transform="translate(-217.345 -153.45)" fill="#fff"/>
          <path id="Path_772" data-name="Path 772" d="M253.82,153.58a208.607,208.607,0,0,0,20.744,24.668l.556-.376a190.818,190.818,0,0,1-21.3-24.292Z" transform="translate(-217.545 -153.435)" fill="#fff"/>
          <path id="Path_773" data-name="Path 773" d="M254.22,153.55a168.162,168.162,0,0,0,22.052,23.636c.185-.135.361-.276.541-.416A154.543,154.543,0,0,1,254.22,153.55Z" transform="translate(-217.744 -153.42)" fill="#fff"/>
          <path id="Path_774" data-name="Path 774" d="M254.62,153.52a138.114,138.114,0,0,0,23.29,22.508c.18-.15.366-.3.541-.456A126.873,126.873,0,0,1,254.62,153.52Z" transform="translate(-217.944 -153.405)" fill="#fff"/>
          <path id="Path_775" data-name="Path 775" d="M255,153.49c8.946,10.024,17.667,17.135,24.483,21.29.175-.165.341-.341.5-.5C273.118,170.435,264.182,163.514,255,153.49Z" transform="translate(-218.133 -153.39)" fill="#fff"/>
          <path id="Path_776" data-name="Path 776" d="M255.42,153.45c9.457,9.953,18.649,16.6,25.56,19.972l.5-.551C274.51,169.848,265.1,163.383,255.42,153.45Z" transform="translate(-218.343 -153.37)" fill="#fff"/>
          <path id="Path_777" data-name="Path 777" d="M282.4,171.984c.155-.2.3-.4.451-.606-7.042-2.18-16.885-8.159-27.064-17.957C265.753,163.258,275.4,169.438,282.4,171.984Z" transform="translate(-218.528 -153.355)" fill="#fff"/>
          <path id="Path_778" data-name="Path 778" d="M283.7,170.455l.411-.642c-7.052-1.328-17.286-6.8-27.9-16.434C266.629,163.068,276.653,168.751,283.7,170.455Z" transform="translate(-218.737 -153.335)" fill="#fff"/>
          <path id="Path_779" data-name="Path 779" d="M284.916,168.876c.12-.221.236-.441.351-.667-7.016-.5-17.6-5.458-28.567-14.87C267.465,162.832,277.9,168.009,284.916,168.876Z" transform="translate(-218.981 -153.315)" fill="#fff"/>
          <path id="Path_780" data-name="Path 780" d="M257,153.29c11.146,9.252,21.851,13.908,28.818,13.978.1-.226.2-.451.291-.677C279.152,166.877,268.307,162.441,257,153.29Z" transform="translate(-219.131 -153.29)" fill="#fff"/>
        </g>
        <path id="Path_781" data-name="Path 781" d="M195.963,155.255c-1.9,4.871.155,19.045,13.863,19.045s18.684-9.958,18.128-16.113l18.3-2.947s5.608,15.5-6.3,26.337-53.185,10.139-61.91,1.9-3.884-24.518-3.884-24.518Z" transform="translate(-128.845 -109.117)" opacity="0.2"/>
        <path id="Path_782" data-name="Path 782" d="M379.24,103.648V100.23a.591.591,0,0,1,.416-.566l2.506-.782V95.464a1.544,1.544,0,0,1,1.544-1.544h3.007a.571.571,0,0,1,.581.541v1.1a.571.571,0,0,1-.566.571H382.9v3.343a.6.6,0,0,1-.286.5l-2.135,1.293v2.381Z" transform="translate(-231.814 -78.529)" fill="#999" stroke="#263238" stroke-linecap="round" stroke-linejoin="round" stroke-width="1"/>
        <rect id="Rectangle_19" data-name="Rectangle 19" width="3.298" height="9.863" transform="translate(147.426 25.119)" fill="#263238"/>
        <rect id="Rectangle_20" data-name="Rectangle 20" width="4.125" height="11.537" transform="translate(150.724 24.282)" fill="#757575"/>
        <g id="Group_39" data-name="Group 39" transform="translate(150.724 24.282)" clip-path="url(#clip-path-3)">
          <rect id="Rectangle_21" data-name="Rectangle 21" width="4.115" height="4.511" transform="translate(0 7.026)" opacity="0.2"/>
        </g>
        <rect id="Rectangle_23" data-name="Rectangle 23" width="4.125" height="11.537" transform="translate(150.724 24.282)" fill="none" stroke="#263238" stroke-linecap="round" stroke-linejoin="round" stroke-width="1"/>
        <rect id="Rectangle_24" data-name="Rectangle 24" width="3.298" height="9.863" transform="translate(16.138 34.977) rotate(180)" fill="#263238"/>
        <rect id="Rectangle_25" data-name="Rectangle 25" width="4.125" height="11.537" transform="translate(12.84 35.814) rotate(180)" fill="#757575"/>
        <g id="Group_40" data-name="Group 40" transform="translate(8.715 24.277)" clip-path="url(#clip-path-4)">
          <rect id="Rectangle_26" data-name="Rectangle 26" width="4.125" height="4.4" transform="translate(0.005 7.032)" opacity="0.2"/>
        </g>
        <rect id="Rectangle_28" data-name="Rectangle 28" width="4.125" height="11.537" transform="translate(12.84 35.814) rotate(180)" fill="none" stroke="#263238" stroke-linecap="round" stroke-linejoin="round" stroke-width="1"/>
        <path id="Path_783" data-name="Path 783" d="M100.722,117.511h0A4.009,4.009,0,0,0,99.539,113l-2.426-2a1.468,1.468,0,0,0-2.135.261l-9.618,13.266a1.438,1.438,0,0,0-.281.857v14.248a1.443,1.443,0,0,0,1.463,1.443h0a1.443,1.443,0,0,0,1.443-1.443V128.056a1.383,1.383,0,0,1,.256-.8l7.192-10.024a.782.782,0,0,1,1.143-.14l1.323,1.123a1.814,1.814,0,0,0,1.173.431h0A1.779,1.779,0,0,0,100.722,117.511Z" transform="translate(-85.08 -86.874)" fill="#8f979a" stroke="#263238" stroke-linecap="round" stroke-linejoin="round" stroke-width="1"/>
        <ellipse id="Ellipse_2" data-name="Ellipse 2" cx="0.687" cy="0.687" rx="0.687" ry="0.687" transform="translate(12.97 27.966)" fill="#999" stroke="#263238" stroke-linecap="round" stroke-linejoin="round" stroke-width="1"/>
        <rect id="Rectangle_29" data-name="Rectangle 29" width="125.169" height="19.386" transform="translate(19.2 20.353)" fill="#263238"/>
        <rect id="Rectangle_30" data-name="Rectangle 30" width="122.984" height="4.521" rx="1.38" transform="translate(20.268 21.811)" fill="#fff" opacity="0.2"/>
        <path id="Path_784" data-name="Path 784" d="M244.032,129.4H141.291a53.841,53.841,0,0,1-4.511-20.974H248.562C248.562,118.143,244.032,129.4,244.032,129.4Z" transform="translate(-110.869 -85.767)" fill="#fff"/>
        <g id="Group_42" data-name="Group 42" transform="translate(25.911 22.663)" clip-path="url(#clip-path-5)">
          <g id="Group_41" data-name="Group 41" transform="translate(10.74 14.755)" opacity="0.7">
            <path id="Path_785" data-name="Path 785" d="M162.36,146a9.393,9.393,0,0,0,3.508-.877c1.258-.757,1.168.682,1.889.777s2.426-.5,3.328-.5.216.551,1.233.5.471.05,1-.05l4.355-.727a9.375,9.375,0,0,1,2.656-.21c.446.216,1.032,1.278,1.684,1s.306-.5,1.288-.5a6.514,6.514,0,0,1,1.794.261s.09-.256.541-.261h.807s1.709.451,1.98.451,2.29-.446,2.361-.451,2-.5,2-.5a3.253,3.253,0,0,0,1.5.892,8.691,8.691,0,0,1,2.055.145,6.8,6.8,0,0,0,2.366-.1,9.158,9.158,0,0,1,1.293.1,3.383,3.383,0,0,0,1.7-.05,6.475,6.475,0,0,1,3.107-.05c1.629.3,3.127-.446,3.819-.451s3.458.306,4.41.306a41.374,41.374,0,0,0,5.227.145,24.02,24.02,0,0,1,4.08.246c1.178,0,2.436-.05,2.706-.05a7.45,7.45,0,0,1,3.438-.646c1.864.205.205-.256,1.353,0s2.055.5,2.541.551a5.79,5.79,0,0,0,1.168-.05l2-.145h9.993" transform="translate(-160.28 -141.352)" fill="none" stroke="#263238" stroke-linecap="round" stroke-linejoin="round" stroke-width="1"/>
            <path id="Path_786" data-name="Path 786" d="M158.21,138.647s6.19,0,7.307-.1,1.714-.672,2.31-.672,3.608.571,3.608.571a1,1,0,0,1,1-.571c.817,0,.4.075,1.153.376s.361,0,.757.3a7.017,7.017,0,0,0,1.854.541s2.792.13,2.9-.541,1.5.541,1.5.541,3.789-.541,5.252-.541,5.132-.3,5.132-.3,3.007.4,3.147.4.636.787,1.173.441a2.487,2.487,0,0,1,1.689-.641,7.8,7.8,0,0,1,1.7.641l1.4-.742,1.6.1s1.634,1.088,2.8.641a25.6,25.6,0,0,0,2.6-1.213l1.438,1.213h.942l2.792-.541a1.689,1.689,0,0,0,1.829.541c1.183-.341,12.484,0,15.361,0s3.508-.742,3.508-.742l2.215.742h11.026" transform="translate(-158.21 -137.871)" fill="none" stroke="#263238" stroke-linecap="round" stroke-linejoin="round" stroke-width="1"/>
          </g>
          <path id="Path_787" data-name="Path 787" d="M248.386,144.5c-.606,1.8-1.047,2.9-1.047,2.9H144.6s-.5-1.052-1.188-2.9Z" transform="translate(-140.087 -126.423)" opacity="0.2"/>
          <path id="Path_788" data-name="Path 788" d="M248.337,129.36c-.346,1.5-.727,2.972-1.1,4.27H140.1c-.371-1.273-.752-2.711-1.083-4.27Z" transform="translate(-137.897 -118.87)" opacity="0.2"/>
        </g>
        <path id="Path_790" data-name="Path 790" d="M244.032,129.4H141.291a53.841,53.841,0,0,1-4.511-20.974H248.562C248.562,118.143,244.032,129.4,244.032,129.4Z" transform="translate(-110.869 -85.767)" fill="none" stroke="#263238" stroke-linecap="round" stroke-linejoin="round" stroke-width="1"/>
        <rect id="Rectangle_31" data-name="Rectangle 31" width="3.062" height="21.39" transform="translate(16.113 19.355)" fill="#757575"/>
        <g id="Group_43" data-name="Group 43" transform="translate(16.113 19.355)" clip-path="url(#clip-path-6)">
          <rect id="Rectangle_32" data-name="Rectangle 32" width="2.982" height="6.345" transform="translate(0.02 15.045)" opacity="0.2"/>
        </g>
        <rect id="Rectangle_34" data-name="Rectangle 34" width="3.062" height="21.39" transform="translate(16.113 19.355)" fill="none" stroke="#263238" stroke-linecap="round" stroke-linejoin="round" stroke-width="1"/>
        <rect id="Rectangle_35" data-name="Rectangle 35" width="3.062" height="21.39" transform="translate(144.389 19.355)" fill="#757575"/>
        <g id="Group_44" data-name="Group 44" transform="translate(144.389 19.355)" clip-path="url(#clip-path-6)">
          <rect id="Rectangle_36" data-name="Rectangle 36" width="3.087" height="6.345" transform="translate(-0.025 15.045)" opacity="0.2"/>
        </g>
        <rect id="Rectangle_38" data-name="Rectangle 38" width="3.062" height="21.39" transform="translate(144.389 19.355)" fill="none" stroke="#263238" stroke-linecap="round" stroke-linejoin="round" stroke-width="1"/>
        <path id="Path_791" data-name="Path 791" d="M247.357,100.04v15.6H122.093v-15.6h-1.2v16.649H248.56V100.04Z" transform="translate(-102.943 -81.582)" fill="#999" stroke="#263238" stroke-linecap="round" stroke-linejoin="round" stroke-width="1"/>
        <path id="Path_792" data-name="Path 792" d="M248.574,150.245v34.987a2.225,2.225,0,0,1-2.225,2.225H110.715a2.225,2.225,0,0,1-2.225-2.225V150.245a2.225,2.225,0,0,1,2.225-2.225h62.5v2.225s-10.67,9.257-29.068,12.67c2.636,11.933,17.04,21.049,34.421,21.049s31.785-9.126,34.426-21.049c-18.423-3.413-29.093-12.67-29.093-12.67V148h62.467a2.225,2.225,0,0,1,2.21,2.245Z" transform="translate(-96.757 -105.505)" fill="#29b6f6" stroke="#263238" stroke-linecap="round" stroke-linejoin="round" stroke-width="1"/>
        <path id="Path_793" data-name="Path 793" d="M248.569,150.245v34.987a2.225,2.225,0,0,1-2.23,2.225H110.71a2.225,2.225,0,0,1-2.23-2.225V150.245a2.235,2.235,0,0,1,2.23-2.23h62.5v2.23s-10.675,9.252-29.068,12.67c2.636,11.933,17.04,21.049,34.426,21.049s31.78-9.126,34.421-21.049c-18.423-3.418-29.093-12.67-29.093-12.67V148h62.467A2.23,2.23,0,0,1,248.569,150.245Z" transform="translate(-96.752 -105.505)" fill="#9ca6ff"/>
        <g id="Group_45" data-name="Group 45" transform="translate(11.728 42.495)" clip-path="url(#clip-path-8)">
          <path id="Path_794" data-name="Path 794" d="M247.487,151.919v32.3a1.629,1.629,0,0,1-1.639,1.629H113.969a1.624,1.624,0,0,1-1.629-1.629v-32.3a1.634,1.634,0,0,1,1.629-1.639h61.144v1.1s-10.675,9.252-29.068,12.67c2.636,11.933,17.04,21.049,34.426,21.049s31.78-9.126,34.421-21.049c-18.423-3.418-29.093-12.67-29.093-12.67v-1.1h60.066A1.639,1.639,0,0,1,247.487,151.919Z" transform="translate(-109.869 -148.335)" fill="#fff" opacity="0.2"/>
        </g>
        <path id="Path_796" data-name="Path 796" d="M248.569,150.245v34.987a2.225,2.225,0,0,1-2.23,2.225H110.71a2.225,2.225,0,0,1-2.23-2.225V150.245a2.235,2.235,0,0,1,2.23-2.23h62.5v2.23s-10.675,9.252-29.068,12.67c2.636,11.933,17.04,21.049,34.426,21.049s31.78-9.126,34.421-21.049c-18.423-3.418-29.093-12.67-29.093-12.67V148h62.467A2.23,2.23,0,0,1,248.569,150.245Z" transform="translate(-96.752 -105.505)" fill="none" stroke="#263238" stroke-linecap="round" stroke-linejoin="round" stroke-width="1"/>
      </g>
      <g id="freepik--right-hand--inject-326" transform="translate(123.703 88.221)">
        <path id="Path_797" data-name="Path 797" d="M285.915,245.559l6.661,18.579s2.882-20.448,4.6-20.448,5.423,11.181,5.423,11.181,2.285-5.834,4.45-6.044,4.125,14.324,4.125,14.324l.336,32.261-2.731,48.79s-17.426-19.2-22.508-24.142-9.938-15.832-11.342-18.042-1.759-13.782-1.759-13.782a12.4,12.4,0,0,0,2.626-7.979s4.09-6.846,3.839-11.9S278.753,243.675,285.915,245.559Z" transform="translate(-273.17 -241.458)" fill="rgba(0,0,0,0.7)" opacity="0.2"/>
        <path id="Path_798" data-name="Path 798" d="M342.513,333.351l-26.382,13.878c0-.14-3.468-5.759-7.658-12.113-1.894-2.877-3.939-5.9-5.879-8.635-3.177-4.475-7.217-8.34-7.563-9.182-1-2.506-8.73-11.888-10.46-15.536s-2.125-15-2.887-17.672,1.423-5.222,3.177-6.465,3.593-4.511,3.593-4.511-1.94-7.558-1.96-11.4-1.328-17.261.236-18.513,2.962-.727,3.353.135c1.283,2.842,2.436,9.988,3.423,13.281s2.842,12.845,3.754,13.532,2.536-1.889,2.536-1.889.155-8.019.5-11.342l-.5-10.525s-.937-6.325,1.243-6.926c3.007-.827,4.1,1.063,4.445,1.859s1.744,5.388,1.744,5.388l.08.316v.15q.035.13.075.286c.055.21.12.461.19.747.667,2.611,1.95,7.838,1.894,9.126-.075,1.739-.682,11.372.175,13.371l1.333-13.306s-2.15-10.254-1.524-11.733,3.578.155,3.929.737,3.218,4.1,3.729,5.443l.5,1.343s.707-3.177,2.366-2.351,1.864,4.866,1.98,6.631,1.318,13.111,1.5,13.131a26.8,26.8,0,0,1,1.839,9.808c-.546,8.335.9,14.534.947,17.732s-2.361,10.6-2.361,10.6h0a18.878,18.878,0,0,1,2.09,5.172c.316,1.724,5.934,7.954,10.525,12.91h0C339.7,330.249,342.372,333.046,342.513,333.351Z" transform="translate(-277.34 -239.249)" fill="#ffbda7"/>
        <path id="Path_799" data-name="Path 799" d="M308.483,335.136h0c-1.894-2.877-3.939-5.9-5.879-8.635-3.177-4.475-7.217-8.34-7.563-9.182-1-2.506-8.73-11.888-10.46-15.536s-2.125-15-2.887-17.672,1.423-5.222,3.177-6.465,3.593-4.511,3.593-4.511-1.94-7.558-1.96-11.4-1.328-17.261.236-18.513,2.962-.727,3.353.135c1.283,2.842,2.436,9.988,3.423,13.281s2.842,12.845,3.754,13.532,2.536-1.889,2.536-1.889.155-8.019.5-11.342l-.5-10.525s-.937-6.325,1.243-6.926c3.007-.827,4.1,1.063,4.445,1.859s1.744,5.388,1.744,5.388l.08.316v.15q.03.13.075.286c.055.21.12.461.19.747a5.2,5.2,0,0,0-3.273-2.551c-4.009-.782-3.142,3.679-2.761,6.355a18.544,18.544,0,0,1-.125,5.338l1-.576c-.722,1.288-1.754,11.993-1.754,14.374a2.456,2.456,0,0,1-3.573,2.476c-1.689-.7-2.29-11.622-3.573-13.582s-4.851,1.784-5.012,5.207,3.032,13.632,2.275,16.038-.747,11.527-.747,11.527l-.922-2.35c.06.321,0,1.4-1.93,4.571a9.447,9.447,0,0,0-1.047,7.8c1.178,2.6,7.152,9.457,8.154,10.164,0,0,.727-2.977,3.007-2.185a13.152,13.152,0,0,0-1.674,4.009c-.471,2.185,4.285,3.583,5.774,5.663C302.318,321.774,302.93,325.638,308.483,335.136Z" transform="translate(-277.345 -239.259)" fill="#898989" opacity="0.4"/>
        <path id="Path_800" data-name="Path 800" d="M372.469,338.222c-4.691-4.726-12.945-9.227-12.444-10.4.672-1.584-.18-4.957-1.624-7.693s.5-7.177.5-7.177l.892,2.581a21.967,21.967,0,0,0,.246-9.081c-.912-5.117-1.624-3.318-1.624-3.318a34.977,34.977,0,0,1,1-7.127c.817-2.516,1.5-8.625.376-12.239s-3.508-2.932-4.145-1.689.045,6.089.571,7.678-1.714,4.26-1.759,2.275-.892-7.518-.892-7.518l1.7-11.111-1.7-8.826s.707-3.177,2.366-2.351,1.864,4.866,1.98,6.631,1.318,13.111,1.5,13.131a26.8,26.8,0,0,1,1.839,9.808c-.546,8.335.9,14.534.947,17.732s-2.361,10.6-2.361,10.6h0a18.878,18.878,0,0,1,2.09,5.172c.316,1.724,5.934,7.954,10.525,12.91Z" transform="translate(-313.275 -250.635)" fill="#898989" opacity="0.4"/>
        <path id="Path_801" data-name="Path 801" d="M344.8,257.63c.1.251.175.456.236.621-1.594-3.7-4.31-2.556-4.791-1.5s1.138,7.583,1.5,8.6-1.453,9.1-1.719,11.773-.972,3.223-.972,3.223c-1.8.135-2-4.831-2-5.513a6.4,6.4,0,0,0,.331,1.674l1.333-13.306s-2.2-10.264-1.574-11.743,3.578.155,3.929.737S344.285,256.286,344.8,257.63Z" transform="translate(-305.023 -245.029)" fill="#898989" opacity="0.4"/>
        <path id="Path_802" data-name="Path 802" d="M342.518,333.34c-.341-.772-15.993-16.539-16.539-19.436a18.843,18.843,0,0,0-2.095-5.177s2.411-7.392,2.361-10.6-1.5-9.4-.947-17.732a26.686,26.686,0,0,0-1.839-9.808c-.19-.02-1.393-11.367-1.5-13.131s-.316-5.8-1.98-6.631-2.366,2.35-2.366,2.35l-.5-1.343c-.5-1.343-3.378-4.861-3.729-5.443s-3.3-2.22-3.929-.737,1.569,11.723,1.569,11.723L309.7,270.692c-.857-2-.251-11.632-.175-13.371s-2.28-10.625-2.28-10.625-1.413-4.571-1.744-5.393-1.438-2.686-4.445-1.859c-2.18.6-1.243,6.926-1.243,6.926l.5,10.525c-.336,3.338-.5,11.342-.5,11.342s-1.624,2.571-2.536,1.889-2.767-10.229-3.754-13.532-2.14-10.44-3.423-13.281c-.391-.862-1.789-1.388-3.353-.135s-.261,14.664-.236,18.513,1.96,11.4,1.96,11.4-1.839,3.248-3.593,4.511-3.939,3.789-3.177,6.465,1.158,14.033,2.887,17.672,9.437,13.031,10.46,15.536c.346.842,4.385,4.706,7.563,9.182,6.24,8.786,13.532,20.548,13.532,20.749" transform="translate(-277.345 -239.237)" fill="none" stroke="#263238" stroke-linecap="round" stroke-linejoin="round" stroke-width="1"/>
        <path id="Path_803" data-name="Path 803" d="M292.484,306.84s1.243,6.159,1.2,7.192a45.92,45.92,0,0,0-1.1,7.838,31.376,31.376,0,0,0-2.045,3.624c-.421,1.113-1.173,3.849-.862,5.373" transform="translate(-281.368 -272.959)" fill="none" stroke="#263238" stroke-linecap="round" stroke-linejoin="round" stroke-width="1"/>
        <path id="Path_804" data-name="Path 804" d="M290.82,325s3.047.025,2.852,1.308" transform="translate(-281.974 -282.018)" fill="none" stroke="#263238" stroke-linecap="round" stroke-linejoin="round" stroke-width="1"/>
        <path id="Path_805" data-name="Path 805" d="M292.921,336.528s-1.955-.847-2.641.291" transform="translate(-281.705 -287.617)" fill="none" stroke="#263238" stroke-linecap="round" stroke-linejoin="round" stroke-width="1"/>
        <path id="Path_806" data-name="Path 806" d="M316.623,297.14s-.14,4.721-1.383,4.345" transform="translate(-294.155 -268.12)" fill="none" stroke="#263238" stroke-linecap="round" stroke-linejoin="round" stroke-width="1"/>
        <path id="Path_807" data-name="Path 807" d="M337.655,302s-.361,2.581.611,3.378" transform="translate(-305.304 -270.545)" fill="none" stroke="#263238" stroke-linecap="round" stroke-linejoin="round" stroke-width="1"/>
        <path id="Path_808" data-name="Path 808" d="M353.54,267.06s1.353,6.515,1.664,8.059-1.539,9.422-1.5,11.472.912,4.982.792,6.36" transform="translate(-313.26 -253.116)" fill="none" stroke="#263238" stroke-linecap="round" stroke-linejoin="round" stroke-width="1"/>
        <path id="Path_809" data-name="Path 809" d="M364.251,365.79s-.436,4.255.872,6.074" transform="translate(-318.568 -302.365)" fill="none" stroke="#263238" stroke-linecap="round" stroke-linejoin="round" stroke-width="1"/>
        <path id="Path_810" data-name="Path 810" d="M309.816,382.59s-2.917,2.656-1.849,5.924" transform="translate(-290.41 -310.745)" fill="none" stroke="#263238" stroke-linecap="round" stroke-linejoin="round" stroke-width="1"/>
        <path id="Path_811" data-name="Path 811" d="M348.978,316.51c.045,1.874-1.052,4.06-1.168,6.651" transform="translate(-310.402 -277.783)" fill="none" stroke="#263238" stroke-linecap="round" stroke-linejoin="round" stroke-width="1"/>
        <path id="Path_812" data-name="Path 812" d="M330.641,313.17c.621,1.534-.732,4.871-.937,6.124a7.664,7.664,0,0,0,.316,2.907" transform="translate(-301.357 -276.117)" fill="none" stroke="#263238" stroke-linecap="round" stroke-linejoin="round" stroke-width="1"/>
        <path id="Path_813" data-name="Path 813" d="M364.834,323.71c-.251,1.629-1.4,2.792-1.624,7.8" transform="translate(-318.084 -281.374)" fill="none" stroke="#263238" stroke-linecap="round" stroke-linejoin="round" stroke-width="1"/>
        <path id="Path_814" data-name="Path 814" d="M309.67,312.22c.842.917.276,5.3.5,6.014" transform="translate(-291.377 -275.643)" fill="none" stroke="#263238" stroke-linecap="round" stroke-linejoin="round" stroke-width="1"/>
        <path id="Path_815" data-name="Path 815" d="M341,261.043a4.132,4.132,0,0,1,5.333.376" transform="translate(-307.005 -249.7)" fill="none" stroke="#263238" stroke-linecap="round" stroke-linejoin="round" stroke-width="1"/>
        <path id="Path_816" data-name="Path 816" d="M321.3,251.579s.5-.837,2.922-.631,2.852,1.569,2.852,1.569" transform="translate(-297.178 -245.062)" fill="none" stroke="#263238" stroke-linecap="round" stroke-linejoin="round" stroke-width="1"/>
        <path id="Path_817" data-name="Path 817" d="M301.174,279.912s-.812-1.2-2.952-.8-3.092,3.423-3.092,3.423" transform="translate(-284.124 -259.087)" fill="#ffbda7" stroke="#263238" stroke-linecap="round" stroke-linejoin="round" stroke-width="1"/>
        <path id="Path_818" data-name="Path 818" d="M361.3,300.054s-1.784-2.586-3.929-1.479" transform="translate(-315.171 -268.699)" fill="none" stroke="#263238" stroke-linecap="round" stroke-linejoin="round" stroke-width="1"/>
      </g>
      <g id="freepik--left-hand--inject-326" transform="translate(37.606 90.009)">
        <path id="Path_819" data-name="Path 819" d="M167.593,261.825c3.007,2.331.471,16.634.471,16.634l.266,4.656,5.157-2.245,2.35,9.948s-.06,3.644,1.849,5.012a127.535,127.535,0,0,1,0,14.148c-.471,5.974-10.024,13-13.316,19.265s-24.768,24.7-24.768,24.7l-18.183-8.65L134.566,292.2l11.778-15.141,6.981-17.416s1.2,11.377.5,19.045Z" transform="translate(-111.376 -251.203)" fill="rgba(0,0,0,0.7)" opacity="0.2"/>
        <path id="Path_820" data-name="Path 820" d="M162.664,285.224c-.456,2.2.642,14.228.451,15.852s-9.763,12.529-10.244,13.356-6.881,4.511-8.37,6.27a79.711,79.711,0,0,0-13.807,23.079h0c-.586,1.443-1.148,2.892-1.7,4.345l-27.6-16.038c2.32-2.877,4.511-5.433,6.515-7.758,4.009-4.716,7.2-8.49,8.766-12.053a19.923,19.923,0,0,1,1.644-2.606c.621-.882,1.178-1.609,1.178-1.609s-2-5.648-1.539-7.422-.576-16.358-.576-16.358-1.358-9.928-2.7-12.434a4.13,4.13,0,0,1-.431-2.115c.065-2.29,1.393-5.177,2.045-8.52.872-4.511.451-6.741,3.187-5.182s1.458,11.026,1.458,11.026l4.135,9.161c1.088-2.215,0-8.68-.055-10.209,0-.251,0-.667-.04-1.208-.085-2.636-.261-8.124-.035-10.289a.884.884,0,0,1,.04-.331c.336-2.235,1.534-9.347,2.3-10.139,1.133-1.173,2.932-2.16,4.626.5.947,1.5.541,13.426.541,13.426s3.929-4.741,5.122-5.9,4.811-3.273,5.779-.822-2.6,10.024-2.6,10.024c.747,1.754.837,6.611.837,6.611s1.689,6.069,2.726,6.014h.045c.3-.065.631-1.168.977-2.716.852-3.794,1.779-10.284,2.506-10.85l.5-.4a.377.377,0,0,1,.08-.075l.185-.165c1.774-1.579,5.513-5.087,5.513-5.087s.266-1.679,3.538-1.163-1.453,10.174-1.453,10.174c-.657,3.072-1.664,10.976-1.664,10.976-.306,3.288-.125,12.123-.125,12.123s1.549-5.142,1.448-7.016,3.077-6.465,4.009-7.648,5.092-.767,3.934,1.5S163.12,283.019,162.664,285.224Z" transform="translate(-101.385 -242.827)" fill="#ffbda7"/>
        <path id="Path_821" data-name="Path 821" d="M123.126,378.826a19.931,19.931,0,0,1,1.644-2.606,35.806,35.806,0,0,0-1.789,6.911c-.105,1.584-4.275,4.325-8.62,7.748C118.394,386.163,121.562,382.389,123.126,378.826Z" transform="translate(-107.855 -309.355)" fill="#898989" opacity="0.4"/>
        <path id="Path_822" data-name="Path 822" d="M131.514,338.574c.621-.882,1.178-1.609,1.178-1.609s-2-5.648-1.539-7.422-.576-16.358-.576-16.358-1.358-9.928-2.7-12.434L131,306.2s-.306,4.305.581,6.666,2,9.562,2,9.562-1.313,6.054-.867,8.234a1.745,1.745,0,0,0,2.456,1.388S136.159,336.038,131.514,338.574Z" transform="translate(-114.599 -271.709)" fill="#898989" opacity="0.4"/>
        <path id="Path_823" data-name="Path 823" d="M138.357,281.327c2.15,12.59-1.554,9.106-2.892,6.39s-4.481-7.858-6.846-6.761a3.7,3.7,0,0,0-1.6,1.443c.065-2.29,1.393-5.177,2.045-8.52.872-4.511.451-6.741,3.187-5.182s1.458,11.026,1.458,11.026l4.135,9.162c1.088-2.215,0-8.68-.055-10.209,0-.251,0-.667-.04-1.208Q138,279.2,138.357,281.327Z" transform="translate(-114.17 -255.474)" fill="#898989" opacity="0.4"/>
        <path id="Path_824" data-name="Path 824" d="M154.264,256.246s-2.32-3.037-4.335-2.882a1.774,1.774,0,0,0-1.569,1.158.884.884,0,0,1,.04-.331c.336-2.235,1.534-9.347,2.3-10.139,1.133-1.173,2.932-2.16,4.626.5.947,1.5.541,13.426.541,13.426s3.929-4.741,5.122-5.9,4.811-3.273,5.779-.822-2.6,10.024-2.6,10.024c.747,1.754.837,6.611.837,6.611s1.689,6.069,2.726,6.014c-2.285,4.3-3.809-5.207-3.809-5.207.341-1.965-.872-6.225-.752-7.347s-2.1-5.092-5.854-4.009-1.042,15.9-1.042,15.9a8.279,8.279,0,0,0-1.253,3.919c-1.158-1.428,0-5.513,0-5.513C153.988,267.738,154.264,256.246,154.264,256.246Z" transform="translate(-124.815 -242.832)" fill="#898989" opacity="0.4"/>
        <path id="Path_825" data-name="Path 825" d="M192.007,276.9c-1.6,1.679-1.378,5.924-3.007,11.251.852-3.794,1.779-10.284,2.506-10.85Z" transform="translate(-145.087 -259.812)" fill="#29b6f6" opacity="0.4"/>
        <path id="Path_826" data-name="Path 826" d="M191.83,295.657c-.456,2.2.642,14.228.451,15.852s-9.763,12.529-10.244,13.356-6.881,4.511-8.37,6.27a79.712,79.712,0,0,0-13.807,23.079,98.761,98.761,0,0,1,4.155-11.407c3.293-7.4,4.636-8.72,6.611-10.835s1.759-6.611,1.759-6.611a18.933,18.933,0,0,1,4.45-.526c2.506,0,9.923-10.575,12.474-12.429s3.007-1.854,0-5.944-2.155.657-3.057.5-1.393,1.819-1.393,1.819c-.316-4.17-3.007-9.021-3.573-10.234s1.373-8.325.972-10.3,1.724-14.033,1.724-14.033-.266-4.626-4.455-4.641a2.746,2.746,0,0,0-1.794.541c1.774-1.579,5.513-5.087,5.513-5.087s.266-1.679,3.538-1.163-1.453,10.174-1.453,10.174c-.657,3.072-1.664,10.976-1.664,10.976-.306,3.288-.125,12.123-.125,12.123s1.549-5.142,1.448-7.017,3.077-6.465,4.009-7.648,5.092-.767,3.934,1.5S192.286,293.451,191.83,295.657Z" transform="translate(-130.551 -253.259)" fill="#898989" opacity="0.4"/>
        <path id="Path_827" data-name="Path 827" d="M128.985,348.15c3.4-8.986,7.207-17.757,15.511-27.444,1.5-1.734,7.883-5.418,8.37-6.27s10.059-11.738,10.244-13.356-.907-13.657-.451-15.852-.075-9.432,1.078-11.687-3.007-2.666-3.934-1.5-4.095,5.794-4.009,7.648-1.448,7.016-1.448,7.016-.18-8.836.125-12.123c0,0,1-7.9,1.664-10.976,0,0,4.721-9.663,1.453-10.174s-3.538,1.163-3.538,1.163-5.217,4.9-6.25,5.7-2.441,13.331-3.478,13.567-2.772-6.014-2.772-6.014-.09-4.856-.837-6.611c0,0,3.563-7.553,2.6-10.024s-4.581-.331-5.779.822-5.122,5.9-5.122,5.9.406-11.933-.541-13.427c-1.694-2.671-3.508-1.684-4.626-.5-.762.792-1.96,7.9-2.3,10.139s0,10.294.035,11.828,1.143,7.994.055,10.209l-4.135-9.161s1.283-9.477-1.458-11.026-2.315.687-3.187,5.182-2.947,8.149-1.614,10.66,2.7,12.434,2.7,12.434,1.032,14.584.576,16.358,1.554,7.427,1.554,7.427a36.671,36.671,0,0,0-2.822,4.215c-2.335,5.307-8.244,11.111-15.271,19.842" transform="translate(-101.38 -242.805)" fill="none" stroke="#263238" stroke-linecap="round" stroke-linejoin="round" stroke-width="1"/>
        <path id="Path_828" data-name="Path 828" d="M162.489,273.05a4.922,4.922,0,0,0-.842,2.922c0,1.9,1.248,12.329,1.248,12.329a4.263,4.263,0,0,0-.952,2" transform="translate(-131.441 -257.892)" fill="none" stroke="#263238" stroke-linecap="round" stroke-linejoin="round" stroke-width="1"/>
        <path id="Path_829" data-name="Path 829" d="M207.08,330.34a14.689,14.689,0,0,0,1.338,5.082,5.676,5.676,0,0,1,.391,4.962,17.683,17.683,0,0,0-.426,3.654" transform="translate(-154.106 -286.47)" fill="none" stroke="#263238" stroke-linecap="round" stroke-linejoin="round" stroke-width="1"/>
        <path id="Path_830" data-name="Path 830" d="M148.757,305.33s.872,2.766-.747,4.08" transform="translate(-124.64 -273.994)" fill="none" stroke="#263238" stroke-linecap="round" stroke-linejoin="round" stroke-width="1"/>
        <path id="Path_831" data-name="Path 831" d="M185.728,304.77s.17,1.088-1.368,1.188" transform="translate(-142.772 -273.715)" fill="none" stroke="#263238" stroke-linecap="round" stroke-linejoin="round" stroke-width="1"/>
        <path id="Path_832" data-name="Path 832" d="M200.886,277.559s-3.859-4.21-6.856-1.037" transform="translate(-147.596 -259.033)" fill="none" stroke="#263238" stroke-linecap="round" stroke-linejoin="round" stroke-width="1"/>
        <path id="Path_833" data-name="Path 833" d="M169.357,272.939s-1.779-2.25-3.323-2.115-3.629,1.078-3.864,2.315" transform="translate(-131.703 -256.779)" fill="none" stroke="#263238" stroke-linecap="round" stroke-linejoin="round" stroke-width="1"/>
        <path id="Path_834" data-name="Path 834" d="M211.19,347.68a8.871,8.871,0,0,1,1.338,2.942" transform="translate(-156.156 -295.119)" fill="none" stroke="#263238" stroke-linecap="round" stroke-linejoin="round" stroke-width="1"/>
        <path id="Path_835" data-name="Path 835" d="M190.128,313.54c-1.2,2.23-.626,6.014-1.068,7.052" transform="translate(-145.117 -278.089)" fill="none" stroke="#263238" stroke-linecap="round" stroke-linejoin="round" stroke-width="1"/>
        <path id="Path_836" data-name="Path 836" d="M165.122,306.15c.281,1.283-.606,3.373-.742,4.912s1.123,3.914.892,6.074" transform="translate(-132.801 -274.403)" fill="none" stroke="#263238" stroke-linecap="round" stroke-linejoin="round" stroke-width="1"/>
        <path id="Path_837" data-name="Path 837" d="M148.641,316.63a12.3,12.3,0,0,0-1,4.009c.045,1.594.611,5.087.611,5.087" transform="translate(-124.454 -279.631)" fill="none" stroke="#263238" stroke-linecap="round" stroke-linejoin="round" stroke-width="1"/>
        <path id="Path_838" data-name="Path 838" d="M134.189,316.4a8.383,8.383,0,0,0,.5,4.27,33.652,33.652,0,0,1,1.739,5.513" transform="translate(-117.705 -279.516)" fill="none" stroke="#263238" stroke-linecap="round" stroke-linejoin="round" stroke-width="1"/>
        <path id="Path_839" data-name="Path 839" d="M137.48,370.96a2.391,2.391,0,0,0,1.739-2.05" transform="translate(-119.388 -305.709)" fill="none" stroke="#263238" stroke-linecap="round" stroke-linejoin="round" stroke-width="1"/>
        <path id="Path_840" data-name="Path 840" d="M186.877,388.24s.957,3.543-.877,5.824" transform="translate(-143.59 -315.351)" fill="none" stroke="#263238" stroke-linecap="round" stroke-linejoin="round" stroke-width="1"/>
        <path id="Path_841" data-name="Path 841" d="M127.07,294.395s2.7-2.631,4.736-.411" transform="translate(-114.195 -267.89)" fill="none" stroke="#263238" stroke-linecap="round" stroke-linejoin="round" stroke-width="1"/>
        <path id="Path_842" data-name="Path 842" d="M148.44,264.583a2.958,2.958,0,0,1,4.35.145" transform="translate(-124.855 -253.223)" fill="none" stroke="#263238" stroke-linecap="round" stroke-linejoin="round" stroke-width="1"/>
      </g>
    </g>
  </g>
</svg>
