<svg xmlns="http://www.w3.org/2000/svg" width="658.518" height="256.076" viewBox="0 0 658.518 256.076">
  <g id="Group_10" data-name="Group 10" transform="matrix(0.07, -0.998, 0.998, 0.07, -2.711, 656.243)">
    <path id="Path_9391" data-name="Path 9391" d="M122.078,273.491l-3-.387c-26.512-2.941-52.049-5.969-77.37-13.523-25.3-8.61-38.849-20.256-41.4-35.645a38.5,38.5,0,0,1-.175-8.029c1.077-13.364,9.3-25.8,22.516-33.246A325.128,325.128,0,0,1,79.6,154.244a344.65,344.65,0,0,0,70.021-36.049,83.754,83.754,0,0,0,22.607-23.948A54.3,54.3,0,0,0,179.916,63.6c-2.38-21.783-41.876-96.891-62.249-109.512a4.815,4.815,0,0,1-1.51-6.977,6.387,6.387,0,0,1,7.809-1.779c23.562,14.411,65.087,92.531,67.716,117.627a.581.581,0,0,0,0,.215c2.227,23.158-12.067,48.053-34.414,62.876A354.773,354.773,0,0,1,84.745,163.54,319.108,319.108,0,0,0,30,190.71a50.811,50.811,0,0,0-14.864,14.818,25.13,25.13,0,0,0-3.484,10.887,24.022,24.022,0,0,0,.289,6,24.558,24.558,0,0,0,10.026,15.513,79.806,79.806,0,0,0,23.916,11.946c24.574,7.2,51.321,9.812,77,12.711,3.06.406,3.807,5.3,3.571,8.011s-1.308,2.917-4.4,2.89Z" transform="matrix(0.99, 0.139, -0.139, 0.99, 459.879, 24.782)" fill="#9389ee"/>
    <path id="Path_9391-2" data-name="Path 9391" d="M122.078,281.257l-3-.387c-26.512-2.941-52.049-5.969-77.37-13.523C16.4,258.737,2.855,247.09.306,231.7a38.5,38.5,0,0,1-.175-8.029c1.077-13.364,9.3-25.8,22.516-33.246A325.127,325.127,0,0,1,79.6,162.01a344.65,344.65,0,0,0,70.021-36.049,83.754,83.754,0,0,0,22.607-23.948,54.3,54.3,0,0,0,7.689-30.646c-2.38-21.783-15.849-41.911-36.222-54.532-2.51-1.621-31.03-14.144-29.37-16.451s32.558,6.481,35.3,7.786c24.851,10.973,39.434,37.46,42.063,62.556a.581.581,0,0,0,0,.215c.745,24.644-12.067,48.053-34.414,62.876a354.772,354.772,0,0,1-72.523,37.488A319.11,319.11,0,0,0,30,198.476a50.811,50.811,0,0,0-14.864,14.818,25.13,25.13,0,0,0-3.484,10.887,24.022,24.022,0,0,0,.289,6A24.557,24.557,0,0,0,21.966,245.7a79.806,79.806,0,0,0,23.916,11.946c24.574,7.2,51.321,9.812,77,12.711,3.06.406,3.807,5.3,3.571,8.011s-1.308,2.917-4.4,2.89Z" transform="translate(476.586 323.569) rotate(4)" fill="#9389ee"/>
  </g>
</svg>
