<svg xmlns="http://www.w3.org/2000/svg" width="23.327" height="23.327" viewBox="0 0 23.327 23.327">
  <g id="group-1-svgrepo-com" transform="translate(0.5 0.5)">
    <circle id="Ellipse_1248" data-name="Ellipse 1248" cx="1.763" cy="1.763" r="1.763" transform="translate(9.401 5.875)" fill="none" stroke="#e84941" stroke-linecap="round" stroke-width="1"/>
    <path id="Path_11079" data-name="Path 11079" d="M15.736,8.381a1.762,1.762,0,1,1-.176,1.338,1.762,1.762,0,0,1,.176-1.338Z" transform="translate(-0.224 -1.625)" fill="none" stroke="#e84941" stroke-width="1"/>
    <path id="Path_11080" data-name="Path 11080" d="M5.736,8.381A1.763,1.763,0,1,1,5.56,9.719a1.763,1.763,0,0,1,.176-1.338Z" transform="translate(-1.975 -1.625)" fill="none" stroke="#e84941" stroke-width="1"/>
    <path id="Path_11081" data-name="Path 11081" d="M21.6,16.127l.571-.137Zm-7.361-2.734-.342-.478-.626.447.6.486Zm1.5,2.731-.575.121Zm4.841.576H14.714v1.175H20.59Zm.444-.436a.3.3,0,0,1-.071.285.5.5,0,0,1-.373.151v1.175a1.556,1.556,0,0,0,1.587-1.885Zm-3.969-3.089a3.863,3.863,0,0,1,2.917,1.071,4.313,4.313,0,0,1,1.052,2.018l1.143-.274a5.483,5.483,0,0,0-1.355-2.566A5.029,5.029,0,0,0,17.064,12Zm-2.479.7a4.134,4.134,0,0,1,2.479-.7V12a5.3,5.3,0,0,0-3.162.915Zm-.713-.023a4.183,4.183,0,0,1,1.3,2.4L16.324,16a5.343,5.343,0,0,0-1.708-3.065Zm1.3,2.4a.326.326,0,0,1-.082.3.511.511,0,0,1-.378.153v1.175A1.578,1.578,0,0,0,16.324,16Z" transform="translate(-0.613 -0.837)" fill="#e84941"/>
    <path id="Path_11082" data-name="Path 11082" d="M11.089,13.393l.372.455.6-.486-.626-.447ZM3.728,16.127l.571.137Zm5.856,0L9.009,16h0ZM8.268,13.175a4.134,4.134,0,0,1,2.479.7l.683-.956A5.3,5.3,0,0,0,8.268,12ZM4.3,16.264a4.313,4.313,0,0,1,1.052-2.018,3.863,3.863,0,0,1,2.917-1.071V12a5.029,5.029,0,0,0-3.756,1.424A5.483,5.483,0,0,0,3.157,15.99Zm.444.436a.5.5,0,0,1-.372-.151.3.3,0,0,1-.071-.285L3.157,15.99a1.556,1.556,0,0,0,1.587,1.885Zm5.875,0H4.743v1.175h5.875Zm0,0a.511.511,0,0,1-.378-.153.326.326,0,0,1-.082-.3L9.009,16a1.578,1.578,0,0,0,1.61,1.872Zm-.46-.455a4.182,4.182,0,0,1,1.3-2.4l-.743-.91A5.342,5.342,0,0,0,9.009,16Z" transform="translate(-2.393 -0.837)" fill="#e84941"/>
    <path id="Path_11083" data-name="Path 11083" d="M12.6,12.5a3.962,3.962,0,0,1,3.972,3.537A.991.991,0,0,1,15.533,17.2H9.657a.991.991,0,0,1-1.035-1.164A3.962,3.962,0,0,1,12.6,12.5Z" transform="translate(-1.432 -0.749)" fill="none" stroke="#e84941" stroke-linecap="round" stroke-width="1"/>
    <path id="Path_11084" data-name="Path 11084" d="M18.5,22.025h1.763a1.763,1.763,0,0,0,1.763-1.763V18.5" transform="translate(0.302 0.302)" fill="none" stroke="#e84941" stroke-linecap="round" stroke-width="1"/>
    <path id="Path_11085" data-name="Path 11085" d="M18.5,2.5h1.763a1.763,1.763,0,0,1,1.763,1.763V6.025" transform="translate(0.302 -2.5)" fill="none" stroke="#e84941" stroke-linecap="round" stroke-width="1"/>
    <path id="Path_11086" data-name="Path 11086" d="M6.025,22.025H4.263A1.763,1.763,0,0,1,2.5,20.263V18.5" transform="translate(-2.5 0.302)" fill="none" stroke="#e84941" stroke-linecap="round" stroke-width="1"/>
    <path id="Path_11087" data-name="Path 11087" d="M6.025,2.5H4.263A1.763,1.763,0,0,0,2.5,4.263V6.025" transform="translate(-2.5 -2.5)" fill="none" stroke="#e84941" stroke-linecap="round" stroke-width="1"/>
  </g>
</svg>
