<svg xmlns="http://www.w3.org/2000/svg" width="19.673" height="21.882" viewBox="0 0 19.673 21.882">
  <path id="hourglass-start-svgrepo-com" d="M16.15,6.314H9.523m12.15,16.568h-1.1m0,0H5.1m15.464,0a8.586,8.586,0,0,0-3.6-6.986l-4.137-2.955M5.1,22.882H4m1.1,0A8.586,8.586,0,0,1,8.7,15.9l4.137-2.955M21.673,3h-1.1m0,0H5.1M20.568,3a8.585,8.585,0,0,1-3.6,6.986l-4.137,2.955M5.1,3H4M5.1,3A8.585,8.585,0,0,0,8.7,9.986l4.137,2.955" transform="translate(-3 -2)" fill="none" stroke="#f6bf29" stroke-linecap="round" stroke-linejoin="round" stroke-width="2"/>
</svg>
