<svg xmlns="http://www.w3.org/2000/svg" xmlns:xlink="http://www.w3.org/1999/xlink" width="47" height="47" viewBox="0 0 47 47">
  <defs>
    <radialGradient id="radial-gradient" cx="0.5" cy="0.5" r="0.942" gradientUnits="objectBoundingBox">
      <stop offset="0" stop-color="#6051ec"/>
      <stop offset="1" stop-color="#433a9e"/>
    </radialGradient>
  </defs>
  <g id="Group_1" data-name="Group 1" transform="translate(-328 -109)">
    <path id="Subtraction_2" data-name="Subtraction 2" d="M498,105.662H471a10,10,0,0,1-6.487-2.389,3.036,3.036,0,0,1,.007-.678,3.276,3.276,0,0,1,.2-.779,3.357,3.357,0,0,1,.87-1.255,6.749,6.749,0,0,1,2.478-1.312,42.719,42.719,0,0,1,8.055-1.333,47.459,47.459,0,0,0,10.73-1.957,9.8,9.8,0,0,0,6.852-6.689.073.073,0,0,1,.008-.027,10.234,10.234,0,0,0-2.93-9.635c-.257-.236-3.569-2.389-4.141-2.389a.105.105,0,0,0-.064.016.053.053,0,0,0-.02.042c-.014.3,1.509,1.7,2.418,2.534.359.33.642.591.711.673A10.88,10.88,0,0,1,491.93,84.5a9.27,9.27,0,0,1,.252,4.366A7.256,7.256,0,0,1,490,92.481a11.146,11.146,0,0,1-3.823,2.176,46.037,46.037,0,0,1-10.354,1.87,43.568,43.568,0,0,0-8.385,1.406,5.716,5.716,0,0,0-4.175,3.368c-.064.162-.121.327-.167.491a9.9,9.9,0,0,1-2.1-6.13v-27a10.011,10.011,0,0,1,10-10h27a10.011,10.011,0,0,1,10,10v7.7a7.336,7.336,0,0,1-3.423,1.44,10.679,10.679,0,0,1-1.345.085,11.458,11.458,0,0,1-3.042-.419,46.129,46.129,0,0,1-9.629-4.239,43.552,43.552,0,0,0-7.738-3.523,6.266,6.266,0,0,0-2.316-.453,5.329,5.329,0,0,0-3.029.91,5.124,5.124,0,0,0-.819.693c-1.382,1.557-1.454,3.943-.221,7.295a57.338,57.338,0,0,0,5.1,9.169l.211.343c.154.193.265.32.4.32a.5.5,0,0,0,.265-.107c.27-.182.756-.678.532-1.044l-.429-.67-.012-.019a56.068,56.068,0,0,1-4.713-8.374,10.609,10.609,0,0,1-.77-3.488,3.269,3.269,0,0,1,.768-2.344,3.221,3.221,0,0,1,.6-.535,3.372,3.372,0,0,1,1.423-.554,6.458,6.458,0,0,1,.685-.036,6.9,6.9,0,0,1,2.1.334,42.7,42.7,0,0,1,7.423,3.4,47.467,47.467,0,0,0,9.989,4.378,10.9,10.9,0,0,0,3.269.511A9.574,9.574,0,0,0,508,78.223V95.662A10.011,10.011,0,0,1,498,105.662Z" transform="translate(-133 50.338)" fill="url(#radial-gradient)"/>
  </g>
</svg>
